<?xml version="1.0" encoding="UTF-8"?>
<svg id="character" xmlns="http://www.w3.org/2000/svg" viewBox="0 0 1600 1200">
  <defs>
    <style>
      .cls-1 {
        fill: none;
        stroke: #e8e8e8;
      }

      .cls-1, .cls-2 {
        stroke-miterlimit: 10;
      }

      .cls-3, .cls-2 {
        fill: #fff;
      }

      .cls-4 {
        opacity: .14;
      }

      .cls-4, .cls-5, .cls-6 {
        fill: #939393;
      }

      .cls-2 {
        stroke: #000;
        stroke-width: 4px;
      }

      .cls-7 {
        fill: #aaa;
        opacity: .27;
      }

      .cls-8 {
        fill: #adadad;
        opacity: .32;
      }

      .cls-9 {
        fill: #ec615b;
      }

      .cls-10 {
        fill: #5222d0;
      }

      .cls-5 {
        opacity: .19;
      }

      .cls-6 {
        opacity: .25;
      }

      .cls-11 {
        fill: #161616;
      }

      .cls-12 {
        fill: #e8e8e8;
      }
    </style>
  </defs>
  <g id="head">
    <g>
      <path class="cls-12" d="M974.79,214.19c5.04-9.79,19.1-7.42,26.83-2.68,5.71,3.5,10.59,8.14,16.03,12.02,4.75,3.38,10.01,6.02,15.81,6.99,10.12,1.69,20.04-1.43,29.15-5.64,9.85-4.54,19.04-10.37,28.84-15.02s19.91-7.98,30.53-6.56c12.21,1.64,23.03,8.41,34.28,12.94,5.35,2.15,10.94,3.88,16.73,4.16,6.08.3,11.92-1.26,17.21-4.2s10.05-7.01,15.17-10.36c5.48-3.58,11.35-5.96,17.99-5.83,14.35.29,26.38,9.5,39.37,14.34,10.07,3.76,22.82,5.95,32.62.26,2.26-1.31,4.25-3.04,5.89-5.07,1.2-1.49-.91-3.62-2.12-2.12-7.31,9.05-19.98,8.61-30.21,5.79-13.23-3.64-24.49-12.32-37.99-15.25-6.82-1.48-13.79-1.22-20.25,1.56-5.64,2.43-10.44,6.31-15.4,9.84s-10.3,6.82-16.48,7.79c-5.61.88-11.31-.19-16.64-1.93-11.65-3.79-22.12-10.63-34.02-13.73-5.48-1.42-11.11-1.86-16.73-1.14-5.2.67-10.23,2.17-15.09,4.12-10.22,4.11-19.61,9.92-29.37,14.96-8.84,4.56-18.51,8.88-28.67,8.57-5.35-.16-10.49-1.76-15.1-4.46-5.77-3.37-10.66-8-16.04-11.93-4.62-3.37-9.56-6-15.27-6.84-5.02-.74-10.59-.31-14.9,2.59-2.01,1.35-3.63,3.16-4.74,5.32-.88,1.71,1.71,3.23,2.59,1.51h0Z"/>
      <path class="cls-12" d="M1122.88,180.45c3.29-7.36,10.86-10.9,18.55-11.71,4.11-.43,8.3-.22,12.35.57,4.84.95,9.49,2.76,14.05,4.61,9.93,4.03,19.93,8.8,30.86,9,9.17.17,17.97-2.84,26.25-6.49,16.12-7.1,32.97-18.39,51.39-13.8,9.34,2.33,17.59,7.54,26.35,11.34,4.25,1.84,8.63,3.43,13.23,4.11s9.59.38,14.25-.95c9.59-2.72,17.84-8.73,27.36-11.62,11.07-3.36,22.12-.23,32.36,4.32,2.68,1.19,5.31,2.46,7.94,3.75,1.73.84,3.25-1.74,1.51-2.59-10.36-5.06-21.48-10.4-33.3-9.96-10.47.38-19.42,5.95-28.69,10.18-4.43,2.02-9.13,3.77-14.02,4.17s-9.42-.48-13.91-1.99c-9.27-3.1-17.56-8.52-26.72-11.91-4.48-1.66-9.15-2.77-13.94-2.93-4.44-.15-8.9.5-13.2,1.62-9.03,2.36-17.4,6.74-25.78,10.74-8.26,3.94-16.91,7.86-26.11,8.8-10.8,1.1-20.81-2.8-30.6-6.86-8.94-3.71-17.87-7.4-27.71-7.33-7.89.05-16.56,2.27-21.91,8.46-1.29,1.49-2.35,3.15-3.16,4.95s1.8,3.28,2.59,1.51h0Z"/>
      <path class="cls-12" d="M230.28,407.86c5.04-9.79,19.1-7.42,26.83-2.68,5.71,3.5,10.59,8.14,16.03,12.02,4.75,3.38,10.01,6.02,15.81,6.99,10.12,1.69,20.04-1.43,29.15-5.64,9.85-4.54,19.04-10.37,28.84-15.02s19.91-7.98,30.53-6.56c12.21,1.64,23.03,8.41,34.28,12.94,5.35,2.15,10.94,3.88,16.73,4.16,6.08.3,11.92-1.26,17.21-4.2s10.05-7.01,15.17-10.36c5.48-3.58,11.35-5.96,17.99-5.83,14.35.29,26.38,9.5,39.37,14.34,10.07,3.76,22.82,5.95,32.62.26,2.26-1.31,4.25-3.04,5.89-5.07,1.2-1.49-.91-3.62-2.12-2.12-7.31,9.05-19.98,8.61-30.21,5.79-13.23-3.64-24.49-12.32-37.99-15.25-6.82-1.48-13.79-1.22-20.25,1.56-5.64,2.43-10.44,6.31-15.4,9.84s-10.3,6.82-16.48,7.79c-5.61.88-11.31-.19-16.64-1.93-11.65-3.79-22.12-10.63-34.02-13.73-5.48-1.42-11.11-1.86-16.73-1.14-5.2.67-10.23,2.17-15.09,4.12-10.22,4.11-19.61,9.92-29.37,14.96-8.84,4.56-18.51,8.88-28.67,8.57-5.35-.16-10.49-1.76-15.1-4.46-5.77-3.37-10.66-8-16.04-11.93-4.62-3.37-9.56-6-15.27-6.84-5.02-.74-10.59-.31-14.9,2.59-2.01,1.35-3.63,3.16-4.74,5.32-.88,1.71,1.71,3.23,2.59,1.51h0Z"/>
      <path class="cls-12" d="M378.37,374.12c3.29-7.36,10.86-10.9,18.55-11.71,4.11-.43,8.3-.22,12.35.57,4.84.95,9.49,2.76,14.05,4.61,9.93,4.03,19.93,8.8,30.86,9,9.17.17,17.97-2.84,26.25-6.49,16.12-7.1,32.97-18.39,51.39-13.8,9.34,2.33,17.59,7.54,26.35,11.34,4.25,1.84,8.63,3.43,13.23,4.11s9.59.38,14.25-.95c9.59-2.72,17.84-8.73,27.36-11.62,11.07-3.36,22.12-.23,32.36,4.32,2.68,1.19,5.31,2.46,7.94,3.75,1.73.84,3.25-1.74,1.51-2.59-10.36-5.06-21.48-10.4-33.3-9.96-10.47.38-19.42,5.95-28.69,10.18-4.43,2.02-9.13,3.77-14.02,4.17-4.75.38-9.42-.48-13.91-1.99-9.27-3.1-17.56-8.52-26.72-11.91-4.48-1.66-9.15-2.77-13.94-2.93-4.44-.15-8.9.5-13.2,1.62-9.03,2.36-17.4,6.74-25.78,10.74s-16.91,7.86-26.11,8.8c-10.8,1.1-20.81-2.8-30.6-6.86-8.94-3.71-17.87-7.4-27.71-7.33-7.89.05-16.56,2.27-21.91,8.46-1.29,1.49-2.35,3.15-3.16,4.95s1.8,3.28,2.59,1.51h0Z"/>
      <path class="cls-12" d="M243.23,884.45c.63-4.15,3.98-6.81,7.86-7.9,4.49-1.27,8.89-.32,12.91,1.9,9.8,5.4,16.12,15.84,27.22,19.14,4.84,1.44,9.87.93,14.3-1.49,4-2.18,7.24-5.53,10.44-8.72s6.38-6.34,10.43-8.31c3.29-1.6,6.93-2.2,10.57-2.03,7.82.37,15.25,3.92,22.2,7.22,7.4,3.52,14.83,7.46,22.87,9.29,3.69.84,7.49,1.17,11.25.66,4.53-.62,8.6-2.57,12.25-5.29,4.3-3.2,8.12-7.13,13-9.49,5.05-2.44,10.76-2.91,16.28-2.39,11.35,1.08,21.66,6.19,32.47,9.34,9.63,2.81,20.63,4.59,30.19.57,2.3-.97,4.38-2.25,6.33-3.81,1.51-1.21-.63-3.32-2.12-2.12-8.24,6.59-19.52,5.93-29.21,3.63-11.02-2.61-21.26-7.78-32.43-9.87-5.43-1.01-11.02-1.36-16.46-.2s-10.18,4.13-14.54,7.69c-3.9,3.19-7.74,6.64-12.64,8.18-3.48,1.1-7.19,1.26-10.79.73-16.18-2.36-29.19-14.46-45.38-16.81-3.77-.55-7.62-.49-11.31.55-4.18,1.18-7.78,3.58-11,6.44-6.56,5.83-12.77,14.98-22.69,13.99-5.61-.56-10.67-4.01-14.85-7.57-4.23-3.6-8.13-7.63-12.8-10.69-4.05-2.65-8.72-4.49-13.63-4.08-4.12.35-8.41,1.97-11.12,5.22-1.3,1.56-2.18,3.4-2.49,5.42-.29,1.89,2.6,2.7,2.89.8h0Z"/>
      <path class="cls-12" d="M408.35,854.88c2.66-9.64,16.08-9.12,23.5-6.43,6.05,2.2,11.76,5.42,18.05,6.93,3.11.75,6.31,1.02,9.49.57,2.82-.4,5.49-1.38,8.08-2.53,5.05-2.23,9.86-5.42,15.35-6.45,2.56-.48,5.22-.25,7.62.78,2.6,1.12,4.84,2.95,7.09,4.62s4.61,3.29,7.32,4.19,5.62.93,8.4.36c5.74-1.18,10.73-4.65,15.84-7.32,3.21-1.68,6.53-3.01,10.12-3.59s7.37-.42,10.97.17c7.81,1.29,15.19,4.4,22.38,7.59,1.75.78,3.28-1.81,1.51-2.59-12.37-5.49-26.75-11.53-40.36-6.9-5.91,2.01-10.97,5.81-16.67,8.26-2.68,1.16-5.58,1.96-8.52,1.72s-5.36-1.59-7.67-3.19c-4.76-3.29-9.05-7.27-15.19-7.36-5.73-.08-10.99,2.86-15.97,5.32-5.54,2.75-11.08,4.93-17.37,3.78-6.64-1.21-12.62-4.61-18.88-6.98-9.22-3.49-24.75-3.53-27.99,8.23-.51,1.86,2.38,2.66,2.89.8h0Z"/>
      <path class="cls-12" d="M393.64,180.56c1.57,11.68,18.18,17.33,25.46,7.26,3.18-4.4,3.53-10.6,1.3-15.48-2.36-5.16-7.8-7.95-13.37-7.3-6.1.72-11.99,4.99-13.21,11.24-.37,1.89,2.52,2.69,2.89.8,1.69-8.63,14.86-12.87,20.13-4.97,2.36,3.53,2.64,8.44.81,12.26-1.96,4.11-6.13,6.3-10.64,5.63-4.81-.71-9.69-4.38-10.37-9.44-.11-.81-.61-1.49-1.5-1.5-.73,0-1.61.7-1.5,1.5h0Z"/>
      <circle class="cls-1" cx="392.3" cy="641.9" r="9.02"/>
      <circle class="cls-1" cx="661.53" cy="1087.99" r="30.59"/>
      <circle class="cls-1" cx="1294.25" cy="411.73" r="17.15"/>
      <path class="cls-12" d="M563.3,99.31c3.05-4.11,8.17-5.77,13.1-6.03,5.67-.3,11.06,1.09,16.44,2.74,6.45,1.98,13.07,4.25,19.91,3.98,5.39-.21,10.41-2.16,15.03-4.84,8.78-5.09,16.81-13.31,27.31-14.56,6.53-.77,13,1.18,19.44,1.92,3.22.37,6.48.43,9.67-.2s6.12-2.06,9.06-3.37c3.38-1.5,6.82-2.6,10.54-2.69s7.11.6,10.5,1.72c7.11,2.34,13.53,6.43,19.72,10.55,1.61,1.07,3.12-1.52,1.51-2.59-10.72-7.14-23.74-15.16-37.2-11.98-3.16.75-6.07,2.2-9.02,3.49-3.16,1.38-6.34,2.3-9.8,2.36-6.77.11-13.32-2.07-20.07-2.34-5.73-.23-11.07,1.34-16.08,4.05-4.74,2.56-9.02,5.86-13.51,8.82s-9.17,5.58-14.47,6.42c-6.79,1.07-13.58-1.1-19.99-3.08s-12.66-3.81-19.35-3.38c-5.99.39-11.68,2.56-15.34,7.49-1.15,1.55,1.45,3.05,2.59,1.51h0Z"/>
      <path class="cls-12" d="M640.13,131.32c4.99-9.49,15.64-14.24,25.92-15.26,13.5-1.35,26.73,3.22,39.72,6.17,3.26.74,6.62,1.53,9.99,1.41,3.05-.11,5.87-1.06,8.42-2.72,2.37-1.55,4.44-3.51,6.65-5.27s4.73-3.25,7.48-4.13c11.45-3.68,24,1.19,34.47,5.72,12.8,5.54,27.59,11.7,41.33,5.7,1.76-.77.24-3.36-1.51-2.59-12.26,5.36-26.1-.44-37.49-5.35-10.83-4.67-22.97-9.56-34.98-7.06-2.79.58-5.5,1.63-7.94,3.1s-4.75,3.59-7.05,5.46-4.65,3.44-7.51,3.95c-3.36.61-6.84-.18-10.12-.91-13.17-2.92-26.5-7.59-40.18-6.6-11.71.85-24.06,6.02-29.77,16.86-.9,1.71,1.69,3.23,2.59,1.51h0Z"/>
      <circle class="cls-1" cx="314.13" cy="1025.08" r="19.41"/>
      <circle class="cls-10" cx="368.82" cy="687.9" r="9.56"/>
      <circle class="cls-10" cx="1247.7" cy="879.08" r="6.6"/>
      <circle class="cls-10" cx="938.87" cy="110.08" r="11.53"/>
      <circle class="cls-9" cx="456.31" cy="754.93" r="13.56"/>
      <circle class="cls-9" cx="1178.01" cy="332.97" r="11.87"/>
      <circle class="cls-9" cx="294.15" cy="327.54" r="11.87"/>
      <circle class="cls-9" cx="456.31" cy="1047.67" r="13.56"/>
      <path class="cls-12" d="M1040.81,998.7c2.2-4.91,7.32-7.85,12.62-8.03,2.59-.09,5.19.45,7.42,1.8,2.63,1.59,4.44,4.21,6.61,6.33s4.63,3.67,7.66,3.84c2.33.13,4.6-.75,6.51-2.04,4.22-2.86,7.1-7.32,11.38-10.08,10.2-6.58,18.39,8.55,28.81,6.65,3.39-.62,5.83-3.1,8.24-5.36s5.33-3.97,8.67-4.73,6.76-.59,9.96.47,6.04,3.46,9.15,5.04,6.43,2.25,9.51.46c1.56-.9,2.75-2.27,4.18-3.33,1.32-.98,2.81-1.68,4.4-2.08,6.61-1.67,13.73,1.62,19.35,4.82,1.55.88,3.07,1.83,4.57,2.81,1.62,1.06,3.12-1.54,1.51-2.59-5.94-3.89-12.55-7.53-19.73-8.33-3.32-.37-6.72.09-9.71,1.61-1.56.79-2.88,1.91-4.19,3.05s-2.7,2.16-4.53,2.13c-3.51-.05-6.7-2.91-9.58-4.6s-6.25-2.74-9.69-2.92-6.94.52-10.09,1.94-5.56,3.93-8.2,6.25c-2.25,1.97-4.83,2.99-7.8,2.27-2.65-.64-5.02-2.13-7.34-3.53-4.58-2.77-9.77-5.97-15.34-4.35-5.16,1.5-8.63,6.08-12.39,9.6-1.64,1.53-3.47,3.08-5.7,3.64-2.71.68-5.18-.61-7.12-2.43-2.29-2.14-4.14-4.73-6.71-6.57-2.29-1.65-5.06-2.51-7.86-2.75-5.47-.46-11.4,1.74-14.95,5.98-.89,1.07-1.64,2.22-2.21,3.49-.78,1.75,1.8,3.27,2.59,1.51h0Z"/>
      <path class="cls-12" d="M1136.96,977.86c2.41-6.45,9.46-10.54,16.23-10.02,7.61.58,13.4,7.96,21.25,7.39,4.22-.3,6.8-3.12,9.79-5.74,2.8-2.47,6.4-3.66,10.12-3.55,3.9.12,6.96,1.75,9.88,4.2,1.45,1.21,3.1,2.28,5.07,1.96s3.46-1.93,5.25-2.73c4.07-1.81,8.67-.99,12.69.52,4.5,1.69,8.62,4.38,12.49,7.19,1.56,1.14,3.06-1.47,1.51-2.59-6.61-4.79-15-10.09-23.55-9.03-2,.25-3.92.84-5.68,1.84-.84.48-1.59,1.13-2.45,1.57-1.04.53-1.88.16-2.76-.49-1.64-1.21-3.01-2.62-4.86-3.54-1.71-.85-3.53-1.42-5.42-1.69-3.8-.54-7.73.06-11.13,1.88s-5.84,6.01-9.81,7.02-7.7-1.29-10.94-2.99c-3.58-1.89-7.19-3.83-11.29-4.19-8.22-.72-16.42,4.51-19.29,12.21-.68,1.81,2.22,2.59,2.89.8h0Z"/>
      <path class="cls-12" d="M1156.01,770.82c1.92-3.38,5.71-5.16,9.53-5.2,1.88-.02,3.79.37,5.46,1.28,1.85,1.01,3.02,2.57,4.26,4.23,1.3,1.74,2.71,3.57,4.84,4.32,2.57.91,4.96-.33,6.99-1.85,4.01-3.01,9.19-7.69,14.66-6.52,4.6.98,8.35,6.09,13.45,4.05,2.36-.95,4.02-3.14,6.1-4.56,1.96-1.34,4.1-2.39,6.35-3.13,4.5-1.48,9.4-1.8,14.04-.83,2.32.48,4.58,1.26,6.67,2.37s4.28,3.42,6.91,2.96c1.45-.25,2.57-1.2,3.65-2.13.97-.83,1.99-1.55,3.11-2.16,2.28-1.23,4.87-1.94,7.45-2.11,5.13-.34,10.34,1.26,14.1,4.84,1.4,1.33,3.52-.79,2.12-2.12-6.99-6.67-18.6-7.71-26.65-2.32-1.02.68-1.9,1.51-2.86,2.26-.48.37-1.06.83-1.7.8-.8-.04-1.54-.72-2.17-1.14-1.99-1.34-4.13-2.41-6.4-3.2-4.77-1.67-9.95-1.98-14.91-1.14s-9.45,2.87-13.25,5.98c-2.05,1.68-3.67,3.76-6.57,2.8-2.31-.76-4.26-2.41-6.48-3.38-5.6-2.45-11.12.27-15.72,3.55-1.1.78-2.16,1.6-3.24,2.41s-2.33,1.87-3.74,1.89c-2.17.02-3.63-2.46-4.75-3.98-1.45-1.95-3.01-3.68-5.24-4.75-2.1-1-4.42-1.49-6.75-1.42-4.76.15-9.43,2.47-11.82,6.68-.95,1.68,1.64,3.19,2.59,1.51h0Z"/>
      <path class="cls-12" d="M1251.05,747.7c2.64-5.03,9.06-7.15,14.36-5.44,1.33.43,2.58,1.13,3.61,2.07,1.27,1.15,2.42,2.51,4.01,3.22,3.81,1.69,5.87-1.76,8.45-3.81,5.08-4.04,12.82-4.3,18.15-.63,1.56,1.08,3.06,2.28,5.08,2.08,1.81-.18,3.25-1.35,4.58-2.49,2.44-2.11,5.18-3.62,8.32-4.42,6.99-1.78,14.87.02,20.01,5.18,1.36,1.37,3.49-.75,2.12-2.12-4.84-4.86-11.86-7.19-18.66-6.64-3.38.27-6.69,1.19-9.67,2.82-1.54.85-2.91,1.91-4.23,3.06-.64.56-1.34,1.21-2.16,1.5-.98.35-1.78-.09-2.59-.64-3.02-2.05-5.94-3.47-9.63-3.83-3.49-.34-7.08.36-10.22,1.92-1.51.75-2.91,1.74-4.13,2.9-1.09,1.04-2.33,3.07-4.07,2.45-1.61-.57-2.76-2.35-4.08-3.37-1.19-.92-2.52-1.61-3.95-2.09-6.54-2.19-14.64.57-17.89,6.78-.9,1.71,1.69,3.23,2.59,1.51h0Z"/>
      <path class="cls-2" d="M519.73,761.66c-23.56,23.22-47.64,49.17-71.51,78.1-70.58,85.55-117.83,171.06-149.85,243.72,1.9,4.94,9.79,23.74,30.65,34.62,25.55,13.32,50.3,4.2,54.12,2.72,26.92-53.04,63.76-114.38,114.19-177.48,29.54-36.96,59.22-68.87,87.35-96.17-21.65-28.5-43.3-57-64.95-85.5Z"/>
      <path class="cls-4" d="M559.6,820.56c-15.05,14.47-30.11,29.74-45.11,45.84-79.16,84.99-137.37,172.86-180.53,254,5.23,2.09,14.01,4.83,25.15,4.82,10.52,0,18.88-2.46,24.03-4.41,17.26-37.49,40.19-80.08,70.78-124.6,44.13-64.24,90.95-113.21,130.76-149.05-8.36-8.87-16.72-17.73-25.08-26.6Z"/>
      <circle class="cls-2" cx="815.63" cy="604.61" r="334.91"/>
      <circle class="cls-2" cx="811.9" cy="606.8" r="311.95"/>
      <g>
        <path class="cls-3" d="M763.88,356.32c-6.03-2.14-14.88-4.95-25.85-7.24-10.42-2.17-26.59-4.66-65.32-3.08-7.05.29-31.89,3-81.29,8.41-15.87,1.74-32.87,3.77-50.55,14.13-9.7,5.69-15.06,11.22-17.53,13.99-8.46,9.49-11.94,19.03-15.55,30.02-8.63,26.23-13.46,46.75-13.46,46.75-3.26,13.85-8.38,33.59-16.24,57.62-2.97-.88-5.93-1.76-8.9-2.64-6.54,6.32-13.88,14.35-21.08,24.27-6.09,8.38-10.81,16.38-14.47,23.46,1.31,5.29,2.66,3.57,5.93,3.98,14.07-11.39,25.42-19.39,26.28-18.48.91.96-5.6,8.83-19.53,23.6-.33.4-3.33,4.2-2.13,8.95.99,3.89,4.1,5.68,4.71,6.02-.02.89,1.37,5.24,4.88,6.77,2.24.98,5.35.42,6.71-.31,13.98-7.52,18.48-12.8,18.48-12.8,5.24-5.18,12.13-11.89,21.95-21.28-2.69,5.57-5.95,11.56-9.9,17.8-6.66,10.53-13.68,19.21-20.09,26.15,1.48,1.18,4.47,3.17,8.29,2.92,3.22-.21,5.49-1.93,7.77-3.72,10.36-8.12,15.55-12.18,18.56-16.48,2.02-2.88,4.71-7.37,6.72-13.42-.83,6.26.6,10.65,1.62,12.96,1.09,2.5,2.62,5.99,5.25,6.15,2.85.17,5.65-3.63,6.68-6.81.96-2.95.17-4.68-.49-9.44-.34-2.46-.4-6.42-.51-14.33-.16-11.57.61-11.62-.17-13.88-1.26-3.63-4.88-8.18-15.75-11.36,1.63-4.4,3.92-10.26,6.91-17.06,2.46-5.58,8.7-19.67,16.9-32.92,12.57-20.33,19.07-21.48,33.66-42.63,7.74-11.22,12.92-21.04,15.98-27.33,4.53.32,11.18.66,19.21.55,17.87-.24,26.31-2.45,57.46-7.81,16.46-2.83,37.15-6.18,62.96-13.2,5.89-1.6,12.2-3.44,19.2-8.16,13.35-9.01,19.71-22.13,22.7-30.09Z"/>
        <path class="cls-8" d="M749.51,379.46c-12.75,1.52-25.62,3.14-38.59,4.89-45.23,6.09-89,13.23-131.26,21.19-2.36,3.41-6.09,8.76-10.75,15.24-31.24,43.39-44.11,53.63-53.94,77.23-3.29,7.9-7.33,19.91-9.01,35.81,3.53-7.18,9.09-17.82,16.85-30.22,15-23.97,22.5-35.96,34.85-48.89,5.58-5.85,14.82-14.74,20.86-29.65,1.57-3.88,2.53-7.18,3.09-9.35,6.39.22,15.62.33,26.73-.33,16.6-.99,23.59-2.86,53.6-8.11,40.03-6.99,46.02-6.87,60.04-12.7,12.11-5.04,21.42-10.86,27.53-15.11Z"/>
        <path class="cls-11" d="M763.31,354.4c-12.73-5.45-26.49-7.38-40.2-8.48-14.39-1.16-28.84-1.65-43.27-1.53-28.89.24-57.76,2.97-86.19,8.09-16.1,2.9-32.05,6.57-47.8,11-1.86.52-1.07,3.42.8,2.89,27.65-7.76,55.93-13.22,84.49-16.22,28.37-2.98,56.99-3.58,85.45-1.7,15.28,1.01,30.98,2.46,45.2,8.55,1.76.75,3.29-1.83,1.51-2.59h0Z"/>
        <path class="cls-11" d="M762.44,355.92c-1.72,10.65-8.66,19.7-17.19,26-9.92,7.33-21.9,11.08-33.75,13.92-26.5,6.36-53.51,11-80.49,14.71-15.42,2.12-30.9,3.83-46.4,5.16-1.91.16-1.93,3.17,0,3,28.01-2.41,55.92-6.07,83.6-11,13.74-2.44,27.44-5.14,41.04-8.26,12.26-2.81,24.74-6.33,35.31-13.38s18.79-17.02,20.79-29.35c.31-1.89-2.58-2.7-2.89-.8h0Z"/>
        <path class="cls-11" d="M578.37,406.3c2.72,3.9,1.68,8.72-.03,12.82-1.85,4.43-4.64,8.47-7.28,12.46-5.33,8.08-11.09,15.86-16.93,23.58-11.51,15.22-23.43,30.27-32.86,46.91-5.24,9.25-9.65,19-12.64,29.21-.54,1.86,2.35,2.65,2.89.8,5.45-18.56,15.63-35.2,26.81-50.82,11.43-15.97,23.99-31.11,34.86-47.48,2.98-4.49,6.08-9.03,8.11-14.06s2.77-10.46-.36-14.94c-1.1-1.57-3.7-.07-2.59,1.51h0Z"/>
        <path class="cls-11" d="M548.64,364.23c-9.43,2.23-17.73,7.82-24.27,14.87-7.19,7.77-12.14,17.19-15.88,27.03-4.17,10.95-7.03,22.37-10.21,33.63-3.39,12.03-6.78,24.06-10.17,36.09-3.82,13.55-7.64,27.11-11.46,40.66-.52,1.86,2.37,2.66,2.89.8,6.65-23.58,13.29-47.16,19.94-70.74,3.17-11.25,6.08-22.62,9.79-33.71,3.33-9.95,7.59-19.83,14.17-28.09,6.65-8.34,15.47-15.16,25.99-17.65,1.88-.44,1.08-3.34-.8-2.89h0Z"/>
        <path class="cls-11" d="M480.87,518.27c-2.67-.65-4.48-3.02-6.72-4.45-2.58-1.65-5.46-1.57-7.83.42-1.5,1.26-2.7,2.95-3.96,4.44-1.41,1.68-2.81,3.36-4.2,5.05-2.73,3.31-5.44,6.64-8.13,10-2.73,3.42-5.44,6.85-8.12,10.31s-5.28,6.57-7.61,10.05c-1.86,2.77-3.11,6.15-1.74,9.4s4.98,4.26,8.2,2.96c2.04-.83,3.82-2.17,5.61-3.42,1.96-1.36,3.91-2.75,5.84-4.15,3.91-2.84,7.75-5.76,11.54-8.75,1.51-1.2-.62-3.31-2.12-2.12-6.03,4.76-12.21,9.32-18.55,13.66-1.96,1.34-5.81,4.08-7.57,1.07-1.62-2.77.48-5.94,2.1-8.16,9.03-12.39,18.84-24.3,28.74-36,.97-1.14,2.09-2.76,3.69-2.97,1.14-.15,2.18.5,3.07,1.13,2.27,1.6,4.15,3.74,6.96,4.42,1.87.46,2.67-2.43.8-2.89h0Z"/>
        <path class="cls-11" d="M492.42,529.21c5.87,2.71,11.75,5.42,17.62,8.13,2.62,1.21,5.3,2.35,7.86,3.68,2.24,1.16,4.5,2.63,5.55,5.02s.79,5.13.46,7.63c-.36,2.78-.93,5.54-.92,8.36s.51,5.86,1.49,8.6c.91,2.54,2.7,4.91,3.17,7.59.94,5.37-5.36,9.08-9.26,11.28-1.68.95-.17,3.54,1.51,2.59,4.18-2.35,9.06-5.49,10.48-10.38.8-2.74.05-5.36-1.15-7.84-1.39-2.89-2.62-5.68-3.05-8.9-.79-5.99,1.87-11.9.72-17.83-1.16-5.99-6.76-8.43-11.74-10.73-7.08-3.27-14.16-6.53-21.23-9.8-1.74-.8-3.27,1.78-1.51,2.59h0Z"/>
        <path class="cls-11" d="M516.56,556.83c-4.97,15.07-12.07,30.36-25.13,40.1-3.43,2.56-7.19,4.68-11.21,6.15-1.8.66-1.02,3.56.8,2.89,15.75-5.76,26.52-19.6,33.16-34.5,2.01-4.52,3.73-9.15,5.27-13.85.61-1.84-2.29-2.63-2.89-.8h0Z"/>
        <path class="cls-11" d="M465.38,546.05c-5.27,6.12-10.55,12.23-15.81,18.36-4.02,4.69-8.52,10.5-6.58,17.08.75,2.54,2.43,4.79,4.92,5.81,1.65.67,2.92-.68,4.22-1.58,1.4-.96,2.77-1.95,4.13-2.96,5.54-4.14,10.76-8.67,15.6-13.6,5.42-5.52,10.35-11.52,14.75-17.89,1.1-1.59-1.5-3.09-2.59-1.51-9.57,13.85-21.81,25.79-35.87,35.04l1.16-.15c-2.78-.96-3.88-4.11-3.78-6.82.13-3.65,2.55-6.94,4.78-9.64,5.58-6.78,11.46-13.34,17.19-19.99,1.25-1.46-.86-3.59-2.12-2.12h0Z"/>
        <path class="cls-11" d="M448.72,587.43c-.21,3.52,2.48,6.2,5.64,7.25,3.81,1.27,7.76-.23,10.89-2.45,3.83-2.7,7.16-6.17,10.61-9.33,3.77-3.46,7.54-6.91,11.31-10.37,4.26-3.9,8.51-7.81,12.77-11.71,1.43-1.31-.7-3.42-2.12-2.12-6.69,6.13-13.37,12.27-20.06,18.4-3.33,3.06-6.66,6.12-10,9.17-2.68,2.46-5.78,5.34-9.55,5.84-2.88.38-6.68-1.39-6.49-4.69.12-1.93-2.88-1.92-3,0h0Z"/>
        <path class="cls-11" d="M498.13,559.55c-3.73,8.54-8.41,16.64-13.94,24.13-2.77,3.74-5.76,7.32-8.94,10.72-2.46,2.63-7.03,6.26-5.77,10.42,1.44,4.75,7.21,3.31,10.52,1.79,1.75-.8.23-3.39-1.51-2.59-1.34.61-2.93,1.23-4.42,1.11-1.58-.13-2.07-1.43-1.5-2.81.74-1.8,2.3-3.17,3.61-4.53,1.41-1.46,2.78-2.96,4.11-4.49,5.36-6.15,10.14-12.81,14.21-19.88,2.3-4,4.38-8.12,6.22-12.35.77-1.75-1.82-3.28-2.59-1.51h0Z"/>
        <path class="cls-11" d="M510.79,574.59c-.5,5.24.99,10.68,4.21,14.86.49.64,1.29.98,2.05.54.63-.37,1.04-1.41.54-2.05-2.95-3.83-4.26-8.54-3.8-13.34.08-.81-.74-1.5-1.5-1.5-.88,0-1.42.69-1.5,1.5h0Z"/>
      </g>
      <path class="cls-3" d="M774.76,719.56c-.26,1.35.06-.13-1.3,23.12-2.53,43.21-5.28,76.48-7.72,105.77-.99,11.82-2.38,28.07-4.16,47.51,33.82,8.89,74.96,14.13,120.35,7.57,5.69-.82,11.23-1.8,16.62-2.91-.23-21-.45-42-.68-63,10.04,18.3,20.07,36.61,30.11,54.91,14.86-4.47,35.32-12.38,56.97-26.81,23.47-15.64,39.47-33.03,49.47-45.74-18.5-34.75-29.68-64.28-36.58-85.45-9.28-28.47-16.44-59.23-42.07-91.5-7.06-8.89-10.59-13.33-15.4-16.43-45.74-29.38-152.83,25.68-165.61,92.96Z"/>
      <path class="cls-5" d="M927.13,647.02c3.35,10.13,6.67,20.3,9.98,30.51,20.57,63.63,39.48,126.56,56.84,188.7,7.53-5.8,16.38-13.69,25.07-24.14,6.51-7.83,11.54-15.41,15.41-22.11-6.68-13.91-15.92-33.81-26.14-58.17-13.7-32.67-27.18-66.67-27.18-66.67-14.84-35.44-19.76-45.78-28.92-58.9-6.05-8.67-11.72-15.34-15.67-19.73-3.13,10.17-6.26,20.34-9.39,30.51Z"/>
      <path class="cls-11" d="M773.26,719.56c-1.2,22.58-2.59,45.14-4.19,67.69-1.6,22.55-3.39,45.09-5.39,67.61-1.13,12.7-2.32,25.4-3.57,38.09-.19,1.92,2.81,1.91,3,0,2.22-22.5,4.24-45.02,6.07-67.55s3.45-45.09,4.87-67.65c.8-12.73,1.54-25.46,2.22-38.2.1-1.93-2.9-1.92-3,0h0Z"/>
      <path class="cls-11" d="M949.1,633.63c10.94,24.36,21.88,48.71,32.82,73.07,10.94,24.36,21.88,48.71,32.82,73.07,6.13,13.66,12.27,27.32,18.4,40.97.79,1.76,3.38.23,2.59-1.51-10.94-24.36-21.88-48.71-32.82-73.07-10.94-24.36-21.88-48.71-32.82-73.07-6.13-13.66-12.27-27.32-18.4-40.97-.79-1.76-3.38-.23-2.59,1.51h0Z"/>
      <path class="cls-11" d="M839.94,770.03c8.86-.42,16.95,4.34,22.85,10.64,6.5,6.93,10.79,15.61,15.29,23.88,10.11,18.58,20.23,37.16,30.34,55.74,5.71,10.49,11.42,20.98,17.13,31.47.92,1.7,3.51.18,2.59-1.51-10.39-19.09-20.78-38.18-31.18-57.27-5.16-9.47-10.31-18.94-15.47-28.41-4.66-8.57-9.07-17.51-15.56-24.88-6.52-7.41-15.84-13.13-26-12.65-1.92.09-1.93,3.09,0,3h0Z"/>
      <path class="cls-11" d="M896.34,837.29c.24,21.11.47,42.22.71,63.32.02,1.93,3.02,1.93,3,0-.24-21.11-.47-42.22-.71-63.32-.02-1.93-3.02-1.93-3,0h0Z"/>
      <path class="cls-9" d="M719.85,344.98c-18.03,11.91-43.09,28.47-53.94,59.72-7.51,21.63-4.81,40.51-.96,67.42,1.37,9.57,5.95,37.65,23.12,76.09,13.72,30.72,23.89,42.12,39.49,68.39,13.75,23.16,31.36,57.25,46.23,103.06,18.8,2.56,33.53.93,43.34-.96,12.41-2.39,35.96-8.87,110.77-67.42,10.17-7.96,18.48-14.68,24.08-19.26-16.02-67.77-35.71-147.94-59.72-239.84-8.07-30.88-16.44-61.17-42.74-75.59-47.38-25.98-116.38,19.61-129.67,28.4Z"/>
      <path class="cls-3" d="M860.24,346.63c-1.49,1.22-4.68,4.19-9.25,21.92-8.98,34.89-3.61,50.55-1.48,55.88h0c5.42,33.7,5.43,68.05,8.99,101.99,3.74,35.69,2.45,70.33-.13,139.61-1.23,33.12-2.43,42.95-6.11,123.59-.89,19.54-1.58,35.6-2.03,46.2-9.76,6.09-18.14,9.92-24.11,12.32-6.34,2.55-10.6,3.74-15.02,7.73-5.69,5.13-8.16,11.74-9.36,16.6-2.91,1.55-7.33,3.87-12.81,6.54-14.6,7.13-15.9,6.64-19.87,9.68-7.99,6.12-10.92,14.49-14.4,23.68-2.74,7.22-6.54,20.65-3.24,22.44,2.69,1.46,9.11-5.31,13.14-9.55,6.82-7.19,8.88-11.86,12.71-16.78,3.98-5.11,10.75-11.59,22.84-16.63-4.19,2.23-15.89,9.21-20.14,22.73-2.59,8.24-1.4,15.7-.39,22.06,1.48,9.28,4.61,16.49,7.05,21.12,1.93-.18,4.74-.68,7.63-2.28,5.72-3.17,7.47-8.29,11.47-16.23,3.66-7.28,7.8-15.52,13.82-22,4.7-5.06,10.12-8.59,15.55-11.1-1.26,6.44-2.14,11.9-2.75,15.99-.22,1.46-2,13.93-.83,28.68.27,3.33.7,6.97,2.84,7.8,2.37.92,5.53-2.1,6.04-2.59,4.75-4.54,4.1-10.44,5.38-18.05,2.29-13.66,9.22-23.38,11.71-26.86,3.28-4.59,3.34-3.28,12.26-13.61,6.94-8.04,10.41-12.06,12.55-15.83,2.73-4.82,6.7-14.52,3.99-30.83,3.95-17.36,8.89-40.29,13.95-67.38,4.31-23.06,11.22-60.38,16.96-109.99,4.12-35.6,5.9-62.59,6.92-78.35,2.32-35.8,3.73-57.57,2.99-88.38-.89-36.91-3.42-26.85-5.54-74.28,0,0-1.09-24.34-8.83-53.61-.89-3.37-3.21-11.8-9.5-20.73-4.03-5.71-8.34-11.83-16.41-14.91-8.1-3.09-19.16-2.72-26.62,3.41Z"/>
      <path class="cls-6" d="M886.86,343.22c2.04,12.78,4.7,30.64,7.31,52.02,4.41,36.22,11.41,105.44,10.24,196.23-.86,66.62-1.53,119.08-15.36,189.41-6.94,35.28-15.05,64.22-21.33,84.47-7.02,9.4-15.49,22.78-22.18,40.1-8.18,21.18-10.56,40.09-11.15,53.17,1.41-.5,3.44-1.4,5.39-3.09,6.34-5.52,5.74-14.15,7.27-21.71,1.24-6.14,5.47-12.18,13.92-24.26,15.62-22.32,24.5-24.17,27.63-37.39,2.02-8.52.38-16.41-1.63-22.22,1.29-6.22,3.13-15.26,5.27-26.15,6.19-31.51,17.55-89.36,24.98-150.33,7.6-62.35,8.15-103.78,9.21-183.8.07-5.44-3.14-35.07-9.58-94.34-.57-5.22-1.76-15.33-7.61-26.62-6.63-12.78-16.03-20.9-22.39-25.5Z"/>
      <path class="cls-11" d="M858.94,346.79c-14.79,24.56-12.95,54.66-10.55,82.09,2.86,32.67,6.9,65.21,8.64,97.97s1.86,65.49,1.14,98.23c-.72,32.78-2.3,65.54-3.98,98.29-1.68,32.81-3.39,65.62-5.09,98.43-.21,3.98-.41,7.96-.62,11.94-.1,1.93,2.9,1.92,3,0,1.7-32.82,3.4-65.64,5.09-98.46s3.36-65.17,4.28-97.78c.92-32.58,1.09-65.19-.23-97.76-.66-16.37-1.73-32.72-3.2-49.04-1.47-16.33-3.27-32.64-4.85-48.96-1.42-14.63-2.93-29.34-2.8-44.05.12-13.75,1.77-27.76,7.19-40.51,1.3-3.06,2.83-6.03,4.55-8.88,1-1.66-1.59-3.17-2.59-1.51h0Z"/>
      <path class="cls-11" d="M861.3,347.69c4.93-4.74,12.18-6.17,18.79-4.98,7.22,1.3,13.3,5.57,18.03,11.04,5.08,5.86,8.64,12.99,11.37,20.2,3.04,8.05,5.04,16.45,6.51,24.92,1.5,8.66,2.46,17.41,3.37,26.15.94,9.07,1.75,18.16,2.43,27.26,1.37,18.34,2.22,36.71,2.59,55.09s.25,36.61-.29,54.91c-.55,18.4-1.54,36.78-2.93,55.13-1.38,18.3-3.16,36.57-5.29,54.79-2.14,18.36-4.64,36.67-7.46,54.94-2.8,18.17-5.91,36.29-9.3,54.35-3.38,18.06-7.03,36.06-10.91,54.02-.96,4.42-1.93,8.85-2.91,13.26-.42,1.88,2.47,2.68,2.89.8,4.08-18.32,7.93-36.69,11.5-55.11,3.56-18.36,6.85-36.78,9.83-55.24,2.97-18.43,5.64-36.92,7.95-55.45,2.33-18.62,4.29-37.28,5.86-55.97,1.56-18.59,2.71-37.21,3.43-55.85s.98-37.25.76-55.88c-.22-18.71-.93-37.41-2.18-56.08-1.22-18.28-2.75-36.61-5.33-54.75-2.35-16.55-6.16-33.85-15.51-47.99-4.11-6.22-9.54-11.91-16.37-15.11-6.3-2.95-13.79-3.79-20.47-1.63-3.18,1.03-6.07,2.72-8.48,5.04-1.39,1.34.73,3.46,2.12,2.12h0Z"/>
      <path class="cls-11" d="M849.49,834.53c-7.28,5.1-15.17,9.33-23.63,12.13-3.94,1.3-7.88,2.23-11.4,4.56s-6.49,5.53-8.81,9.11c-2.34,3.63-4.04,7.66-5.35,11.76-.59,1.84,2.31,2.63,2.89.8,2.31-7.22,6.05-14.5,12.47-18.87,3.39-2.31,7.15-3.19,10.99-4.46,3.44-1.14,6.82-2.51,10.09-4.06,4.99-2.37,9.73-5.2,14.25-8.37,1.57-1.1.07-3.7-1.51-2.59h0Z"/>
      <path class="cls-11" d="M829.43,858.11c-13.15,5.94-26.25,12.01-39.29,18.19-6.11,2.9-12.37,5.63-18.27,8.93-5.42,3.03-10.02,6.99-13.13,12.42s-4.72,11.24-6.24,17.11c-.88,3.4-1.66,6.82-2.35,10.26-.54,2.7-1.26,5.47-.81,8.23.35,2.15,1.62,4.11,3.89,4.48,3.06.49,5.21-2.28,6.93-4.36,4.3-5.19,8.14-10.73,12.16-16.14,7.98-10.75,17.46-21.72,30.77-25.63,1.85-.54,1.06-3.44-.8-2.89-10.85,3.19-19.58,10.89-26.67,19.44-4.11,4.95-7.81,10.22-11.62,15.39-1.84,2.49-3.71,4.97-5.67,7.36-.88,1.07-3.88,5.51-5.52,3.33-1.29-1.71-.5-4.66-.14-6.53.61-3.21,1.3-6.41,2.07-9.59,1.41-5.8,2.9-11.76,5.6-17.12s6.51-9.28,11.57-12.31c5.5-3.3,11.49-5.86,17.28-8.61,13.85-6.59,27.77-13.05,41.75-19.36,1.76-.79.23-3.38-1.51-2.59h0Z"/>
      <path class="cls-11" d="M804.45,887.1c-8.66,5.76-17.79,12.04-23.19,21.18-2.84,4.8-4.22,10.15-4.26,15.72-.05,6.68,1.11,13.46,2.22,20.03.96,5.72,1.87,12.34,7.04,15.87.61.42,1.75.17,2.05-.54,3.39-7.95,4.23-16.52,6.04-24.9.9-4.18,2.07-8.35,4.02-12.16,1.94-3.78,4.6-7.09,7.62-10.07,3.49-3.45,7.4-6.44,11.31-9.39,1.52-1.15.03-3.75-1.51-2.59-6.94,5.23-14.05,10.68-18.68,18.18s-5.9,16.37-7.48,24.91c-.91,4.92-1.94,9.88-3.91,14.5l2.05-.54c-4.09-2.79-4.73-8.64-5.5-13.12-1.04-6.02-2.03-12.16-2.25-18.28-.19-5.46.77-10.7,3.46-15.49,2.31-4.11,5.51-7.61,9.01-10.73,4.18-3.73,8.81-6.91,13.47-10,1.6-1.06.1-3.66-1.51-2.59h0Z"/>
      <path class="cls-11" d="M785.9,959.06c4.83,2.19,9.09-1.78,11.96-5.29,3.31-4.05,6.11-8.46,8.74-12.97,5.02-8.61,9.51-17.67,16.28-25.09,3.63-3.98,7.83-7.34,12.74-9.59,1.75-.8.23-3.39-1.51-2.59-17.95,8.22-24.54,28.33-34.95,43.53-1.55,2.26-3.18,4.52-5.06,6.51-1.55,1.64-4.23,4-6.67,2.89-1.75-.79-3.27,1.79-1.51,2.59h0Z"/>
      <path class="cls-11" d="M884.71,849.03c.74,11.61,1.32,23.77-4.92,34.11-5.34,8.86-13.74,15.3-20.36,23.12-7.31,8.64-11.46,19-14.62,29.75-1.6,5.45-2.99,10.96-4.58,16.41-.59,2.01-1.51,4.85-4.18,3.74s-2.96-4.18-3.11-6.58c-.91-14.37.5-28.98,3.63-43.02.42-1.88-2.47-2.68-2.89-.8-2.98,13.37-4.32,27.11-3.87,40.81.1,3,.07,6.26,1.49,9,1.13,2.18,3.45,3.86,5.96,3.84,2.8-.01,4.49-2.16,5.36-4.59,1-2.78,1.67-5.71,2.44-8.56,3.14-11.51,6.21-23.36,13.02-33.35,6.22-9.12,15.3-15.79,21.86-24.64,3.94-5.32,6.52-11.34,7.52-17.89,1.08-7.08.7-14.24.25-21.35-.12-1.92-3.12-1.93-3,0h0Z"/>
      <path class="cls-3" d="M682.66,142.26c-19.43,12.87-24.57,34.76-30.93,61.86-3.56,15.16-16.15,68.79,13.53,110.83,6.19,8.77,22.01,31.17,42.53,29,12.69-1.34,21.4-11.47,25.09-16.45,8.01,8.65,16.02,17.29,24.03,25.94,7.35-1.45,17.95-4.47,28.84-11.43,28.02-17.9,36.25-47.94,40.59-63.79,4.11-15.01,13.4-48.93-3.87-82.48-8.37-16.25-19.52-25.73-25.77-30.93-27.25-22.68-79.83-45.21-114.05-22.55Z"/>
      <path class="cls-7" d="M749.03,181.56c4.72,8.51,11.16,22.84,12.24,41.24,1.64,27.92-10.03,49.08-20.62,68.3-6.34,11.5-16.79,27.76-33.45,44.63,6.99-1.28,15.94-3.66,25.68-8.24,13.63-6.41,23.3-14.56,29.38-20.6,1.3,3.88,9.48,27.53,20.91,27.38,4.15-.05,7.24-3.22,9.02-5.15,40.91-44.35,40.11-83.07,40.11-83.07-.21-10.27-2.21-29.23-13.69-47.73-4.01-6.46-8.45-13.62-16.75-18.69-21.52-13.15-48.91-.02-52.84,1.93Z"/>
      <path class="cls-10" d="M693.07,143.77c3.99-1.77,9.77-3.53,14.72-1.18,9.12,4.34,8.95,19.43,11.19,28.85,3.23,13.58,17.3,30.07,64.15,43.45,1.82-6.99,7-12.35,13.19-13.36,9.4-1.55,17.5,7.5,18.96,15.46.94,5.11-.96,9.23-2.92,13.49-1.74,3.79-5.95,12.92-14.02,14.07-3.28.47-6.08-.54-7.7-1.29.02,5.65-.27,14.13-1.91,24.23-3.7,22.82-11.38,36.16-15.59,47.62-4.2,11.44-15,44.69-.59,67.72,15.34,24.52,58.19,35.26,84.79,17.66,21.01-13.89,24.28-40.43,25.91-53.58,1.53-12.38.88-25.29-15.9-77.14-12.61-38.95-18.91-58.43-31.8-84.79-24.25-49.61-41.37-62.33-46.52-65.95-6.82-4.79-21.66-14.96-42.98-17.66-35.41-4.48-71.62,13.81-90.68,40.63-10.43,14.68-13.24,37.27-18.84,82.44-1.83,14.72-2.79,37.09-4.71,81.85-1.39,32.27-1.4,42.93,1.77,57.71,3.78,17.67,8.13,38,25.91,51.82,2.97,2.31,23.77,18.48,47.11,11.19,23.43-7.32,31.27-32.62,33.56-40.04,8.92-28.8-4.12-53.76-7.29-59.47-8.56,2.75-17.12,5.49-25.68,8.24-5.48-1.9-13.52-5.36-21.79-11.78-14.62-11.35-20.99-24.96-23.55-30.62-2.66-5.86-5.7-14.33-7.65-30.62-2.85-23.81-5.62-46.94,4.71-73.02,8.61-21.73,22.81-36.63,34.15-45.93Z"/>
      <path class="cls-11" d="M655.61,189.09c-3.77,24.43-6.44,49.42-2.51,74.01,3.17,19.82,11.15,39.09,24.64,54.15,7.21,8.05,16.02,14.7,25.97,18.99,1.75.76,3.28-1.83,1.51-2.59-17.45-7.51-30.64-22.09-39.05-38.88-9.88-19.73-12.61-42.01-11.92-63.85.43-13.76,2.15-27.44,4.25-41.03.29-1.89-2.6-2.7-2.89-.8h0Z"/>
      <path class="cls-11" d="M705.6,336.73c18.16-2.75,35.17-10.97,49.66-22.09,13.97-10.73,26.22-24.39,32.87-40.89,3.63-9.01,5.29-18.8,4.18-28.48-.22-1.9-3.22-1.92-3,0,1.95,17.03-4.95,33.43-15.2,46.72-10.69,13.87-25.16,25.16-40.85,32.85-8.98,4.4-18.57,7.51-28.46,9-1.9.29-1.09,3.18.8,2.89h0Z"/>
      <path class="cls-11" d="M789.89,244.56c5.87,4.4,13.16.29,17.52-4.19s7.64-10.68,8.81-17.05c1.1-5.97.85-12.97-2.77-18.1s-10.21-7-16.29-5.5c-7.21,1.78-12.33,7.94-15.33,14.42-.81,1.74,1.78,3.27,2.59,1.51,2.31-4.99,5.77-9.75,10.88-12.13,4.72-2.2,10.93-1.85,14.63,2.09,3.66,3.9,4.23,9.88,3.68,14.95-.59,5.52-2.82,10.92-6.23,15.29s-10.25,10.4-15.98,6.11c-1.55-1.16-3.04,1.45-1.51,2.59h0Z"/>
      <path class="cls-11" d="M731.82,328.55c5.1,6.52,10.57,12.74,16.4,18.62,1.4,1.41,2.83,2.81,4.27,4.18s2.87,3.14,4.58,4.06c1.8.96,3.62-.17,5.24-.97,1.98-.97,3.96-1.94,5.94-2.91,1.73-.85.21-3.44-1.51-2.59s-3.53,1.73-5.3,2.6c-.69.34-1.82,1.15-2.59,1.2s-1.52-.98-2.05-1.46c-2.76-2.55-5.44-5.18-8.06-7.87-5.23-5.39-10.16-11.06-14.79-16.98-1.19-1.52-3.3.62-2.12,2.12h0Z"/>
      <path class="cls-11" d="M725.43,257.22c-8.1-.41-15.78,3.26-21.78,8.48-6.47,5.62-11.08,13.04-15.56,20.25-1.02,1.64,1.57,3.15,2.59,1.51,7.74-12.44,18.06-28.08,34.75-27.24,1.93.1,1.92-2.9,0-3h0Z"/>
      <path class="cls-11" d="M721.42,225.73c2.9,0,2.9-4.5,0-4.5s-2.9,4.5,0,4.5h0Z"/>
      <path class="cls-11" d="M735.8,219.16c2.9,0,2.9-4.5,0-4.5s-2.9,4.5,0,4.5h0Z"/>
      <path class="cls-11" d="M734.56,233.53c2.9,0,2.9-4.5,0-4.5s-2.9,4.5,0,4.5h0Z"/>
      <path class="cls-11" d="M662.08,238.26v-.41c.01-.31-.05-.6-.19-.87-.09-.28-.25-.52-.47-.72-.2-.22-.45-.37-.72-.47-.27-.14-.56-.21-.87-.19l-.6.08c-.38.11-.71.3-.99.58l-.35.46c-.2.35-.31.73-.31,1.14v.41c-.01.31.05.6.19.87.09.28.25.52.47.72.2.22.45.37.72.47.27.14.56.21.87.19l.6-.08c.38-.11.71-.3.99-.58l.35-.46c.2-.35.31-.73.31-1.14h0Z"/>
      <path class="cls-11" d="M668.86,237.23c2.9,0,2.9-4.5,0-4.5s-2.9,4.5,0,4.5h0Z"/>
      <path class="cls-11" d="M668.45,255.29c2.9,0,2.9-4.5,0-4.5s-2.9,4.5,0,4.5h0Z"/>
      <path class="cls-11" d="M682.02,184.84c-1.51,21.11-2.34,42.28-2.45,63.45-.03,5.95,0,11.91.07,17.86.02,1.59,1.95,1.91,2.8.76,3.66-4.99,7.32-9.98,10.97-14.97,1.14-1.56-1.46-3.06-2.59-1.51-3.66,4.99-7.32,9.98-10.97,14.97l2.8.76c-.28-21.17.13-42.34,1.26-63.48.32-5.95.69-11.89,1.12-17.83.14-1.93-2.86-1.92-3,0h0Z"/>
      <ellipse class="cls-11" cx="668.86" cy="212.87" rx="3.29" ry="9.93"/>
      <ellipse class="cls-11" cx="717.35" cy="200.83" rx="3.29" ry="9.93"/>
      <path class="cls-11" d="M662.56,192.99c1.14-2.33,2.42-4.9,4.6-6.44,1.92-1.35,4.41-1.76,6.3-.36.65.48,1.67.11,2.05-.54.45-.76.12-1.57-.54-2.05-2.62-1.93-6.37-1.51-9.01.15-2.84,1.78-4.56,4.8-6,7.73-.36.73-.2,1.62.54,2.05.66.39,1.69.19,2.05-.54h0Z"/>
      <path class="cls-11" d="M707.14,175.5c1.32-4.36,4.98-7.83,9.44-8.85,4.71-1.07,9.69.91,12.72,4.58,1.23,1.49,3.34-.64,2.12-2.12-3.71-4.51-9.94-6.64-15.64-5.35s-9.93,5.62-11.54,10.94c-.56,1.85,2.33,2.64,2.89.8h0Z"/>
    </g>
  </g>
</svg>