<svg width="139" height="44" viewBox="0 0 139 44" fill="none" xmlns="http://www.w3.org/2000/svg">
<path d="M137.835 22.4646C137.865 22.406 137.898 22.3474 137.924 22.2887C137.96 22.2041 137.983 22.1128 138.006 22.0249C138.019 21.9728 138.039 21.9206 138.052 21.8685C138.082 21.7219 138.098 21.5688 138.098 21.4157V2.36508C138.098 1.3259 137.246 0.485439 136.198 0.485439C135.149 0.485439 134.297 1.32916 134.297 2.36508V17.3111L119.569 1.42363H119.562C119.128 0.856808 118.448 0.482178 117.668 0.482178C117.599 0.482178 117.533 0.495193 117.468 0.501717C117.418 0.485439 117.366 0.478913 117.31 0.485439C116.159 0.645045 115.268 1.62887 115.268 2.81464V21.862C115.268 22.9012 116.119 23.7417 117.168 23.7417C118.217 23.7417 119.069 22.8979 119.069 21.862V17.9593C119.069 17.9593 119.089 17.9691 119.095 17.9756V6.93553L133.824 22.823H133.833C134.267 23.3898 134.948 23.7645 135.724 23.7645C135.816 23.7645 135.902 23.7482 135.987 23.7384C136.01 23.7384 136.033 23.7449 136.056 23.7384C136.083 23.7351 136.106 23.7253 136.132 23.7221C136.197 23.7091 136.263 23.6928 136.329 23.6765C136.408 23.6569 136.487 23.6341 136.562 23.6048C136.628 23.5788 136.691 23.5527 136.757 23.5201C136.826 23.4876 136.891 23.4517 136.954 23.4126C137.016 23.3768 137.076 23.3377 137.135 23.2921C137.194 23.2498 137.25 23.2041 137.302 23.1553C137.358 23.1064 137.411 23.0575 137.46 23.0054C137.51 22.9533 137.556 22.8947 137.602 22.836C137.644 22.7807 137.69 22.7253 137.727 22.6666C137.769 22.6015 137.802 22.5298 137.839 22.4614L137.835 22.4646Z" fill="#6B7280"/>
<path d="M18.727 5.93872C17.188 5.93872 15.7774 6.4925 14.689 7.40792C13.3408 8.54156 12.4858 10.2323 12.4858 12.1217C12.4858 14.7669 10.8055 17.0277 8.44777 17.9072C7.76381 18.1646 7.02067 18.3047 6.24463 18.3047H10.6509C12.1898 18.3047 13.6005 17.7509 14.689 16.8355C16.0372 15.7018 16.8921 14.0111 16.8921 12.1217C16.8921 9.47649 18.5724 7.21569 20.9301 6.33615C21.6141 6.07879 22.3573 5.93872 23.1333 5.93872H18.727Z" fill="#6B7280"/>
<path d="M17.1353 0H12.239C5.48155 0 0 5.42721 0 12.1249C0 18.8226 5.47829 24.2498 12.239 24.2498H17.1353C23.8927 24.2498 29.3741 18.8226 29.3741 12.1249C29.3741 5.42721 23.8927 0 17.1353 0ZM17.2569 20.2462H12.1173C7.58936 20.2462 3.91634 16.6107 3.91634 12.1216C3.91634 7.63261 7.58607 3.99712 12.1173 3.99712H17.2569C21.7849 3.99712 25.4579 7.63261 25.4579 12.1216C25.4579 16.6107 21.7882 20.2462 17.2569 20.2462Z" fill="#6B7280"/>
<path d="M58.6664 20.6665C58.6664 20.6665 58.5776 20.5623 58.548 20.5362L55.5358 17.3991L53.4971 15.2784C56.1738 14.0438 58.0318 11.3562 58.0318 8.23869C58.0318 3.95163 54.5262 0.479004 50.199 0.479004H37.6213C36.3091 0.479004 35.2471 1.53123 35.2471 2.831V21.8947C35.257 22.9241 36.1019 23.758 37.1444 23.758C38.187 23.758 39.0319 22.9273 39.0418 21.8947V15.9983H48.7421L55.6246 23.0511C56.3282 23.7483 57.1999 23.7385 57.2524 23.7385C58.2915 23.7385 59.1333 22.9045 59.1333 21.8751C59.1333 21.4093 58.9525 20.9858 58.6664 20.66V20.6665ZM50.199 12.2391H39.0452V4.24807H50.199C52.4285 4.24807 54.2336 6.03651 54.2336 8.24518C54.2336 10.4539 52.4285 12.2423 50.199 12.2423V12.2391Z" fill="#6B7280"/>
<path d="M96.801 13.985C96.7911 12.9556 95.9462 12.1216 94.9037 12.1216C93.8612 12.1216 93.0162 12.9523 93.0063 13.985V19.9986H86.2424C86.1107 19.9986 85.9824 19.9855 85.8541 19.979C81.6453 19.777 78.2913 16.3435 78.2913 12.1216C78.2913 7.89973 81.8525 4.24466 86.2424 4.24466H93.0262C94.0652 4.23165 94.9071 3.39442 94.9071 2.36502C94.9071 1.3356 94.0683 0.495137 93.0262 0.485352H91.1583H86.2424C79.7544 0.485352 74.4932 5.69758 74.4932 12.1249C74.4932 18.5522 79.4354 23.4419 85.6473 23.7481C85.6473 23.7546 85.6473 23.7579 85.6504 23.7644H94.4302C95.7421 23.7644 96.8041 22.7122 96.8041 21.4124L96.801 13.985Z" fill="#6B7280"/>
<path d="M68.6891 2.34554C68.6794 1.31612 67.8441 0.482178 66.8116 0.482178C65.779 0.482178 64.9437 1.31286 64.9341 2.34554V21.9011C64.9437 22.9305 65.779 23.7645 66.8116 23.7645C67.8441 23.7645 68.6794 22.9337 68.6891 21.9011V2.34554Z" fill="#6B7280"/>
<path d="M90.3624 12.1248C89.3233 12.1346 88.4814 12.962 88.4814 13.9849C88.4814 15.0078 89.3199 15.8353 90.3624 15.845H94.9266C95.9657 15.832 96.8075 15.0046 96.8075 13.9817C96.8075 12.9588 95.9688 12.1313 94.9266 12.1216H90.3624V12.1248Z" fill="#6B7280"/>
<path d="M107.912 2.34554C107.902 1.31612 107.067 0.482178 106.035 0.482178C105.002 0.482178 104.167 1.31286 104.157 2.34554V21.9011C104.167 22.9305 105.002 23.7645 106.035 23.7645C107.067 23.7645 107.902 22.9337 107.912 21.9011V2.34554Z" fill="#6B7280"/>
<path d="M130.772 35.6569H136.97V37.9743H130.772V35.6569ZM130.993 40.9537H138V43.3447H128.032V30.4705H137.761V32.8614H130.993V40.9537Z" fill="#6B7280"/>
<path d="M119.049 43.5654C118.056 43.5654 117.13 43.406 116.272 43.0872C115.426 42.7561 114.69 42.2902 114.065 41.6894C113.44 41.0886 112.949 40.3836 112.594 39.5744C112.25 38.7651 112.079 37.8762 112.079 36.9076C112.079 35.9389 112.25 35.05 112.594 34.2408C112.949 33.4315 113.44 32.7265 114.065 32.1257C114.703 31.5249 115.444 31.0651 116.29 30.7463C117.136 30.4153 118.062 30.2498 119.067 30.2498C120.183 30.2498 121.189 30.4459 122.084 30.8383C122.991 31.2184 123.751 31.7824 124.364 32.5303L122.452 34.2959C122.01 33.7932 121.52 33.4193 120.98 33.174C120.441 32.9166 119.852 32.7878 119.215 32.7878C118.614 32.7878 118.062 32.8859 117.559 33.0821C117.057 33.2783 116.621 33.5603 116.254 33.9281C115.886 34.2959 115.598 34.7312 115.389 35.2339C115.193 35.7366 115.095 36.2945 115.095 36.9076C115.095 37.5206 115.193 38.0785 115.389 38.5812C115.598 39.0839 115.886 39.5192 116.254 39.887C116.621 40.2549 117.057 40.5369 117.559 40.733C118.062 40.9292 118.614 41.0273 119.215 41.0273C119.852 41.0273 120.441 40.9047 120.98 40.6595C121.52 40.402 122.01 40.0158 122.452 39.5008L124.364 41.2664C123.751 42.0143 122.991 42.5845 122.084 42.9768C121.189 43.3692 120.177 43.5654 119.049 43.5654Z" fill="#6B7280"/>
<path d="M105.198 43.3447V30.4705H108.177V43.3447H105.198Z" fill="#6B7280"/>
<path d="M94.5551 36.2639H100.735V38.6548H94.5551V36.2639ZM94.7758 43.3447H91.7964V30.4705H101.526V32.8614H94.7758V43.3447Z" fill="#6B7280"/>
<path d="M81.1538 36.2639H87.3334V38.6548H81.1538V36.2639ZM81.3745 43.3447H78.395V30.4705H88.1242V32.8614H81.3745V43.3447Z" fill="#6B7280"/>
<path d="M67.4745 43.5654C66.4569 43.5654 65.5127 43.3998 64.6422 43.0688C63.7839 42.7377 63.036 42.2718 62.3984 41.671C61.7731 41.0702 61.2827 40.3652 60.9271 39.556C60.5838 38.7467 60.4121 37.8639 60.4121 36.9076C60.4121 35.9512 60.5838 35.0684 60.9271 34.2592C61.2827 33.4499 61.7792 32.7449 62.4168 32.1441C63.0544 31.5433 63.8023 31.0774 64.6606 30.7463C65.5189 30.4153 66.4507 30.2498 67.4561 30.2498C68.4738 30.2498 69.4057 30.4153 70.2517 30.7463C71.11 31.0774 71.8518 31.5433 72.4771 32.1441C73.1147 32.7449 73.6112 33.4499 73.9668 34.2592C74.3224 35.0561 74.5002 35.9389 74.5002 36.9076C74.5002 37.8639 74.3224 38.7529 73.9668 39.5744C73.6112 40.3836 73.1147 41.0886 72.4771 41.6894C71.8518 42.2779 71.11 42.7377 70.2517 43.0688C69.4057 43.3998 68.4799 43.5654 67.4745 43.5654ZM67.4561 41.0273C68.0324 41.0273 68.5596 40.9292 69.0378 40.733C69.5283 40.5369 69.9574 40.2549 70.3252 39.887C70.6931 39.5192 70.9751 39.0839 71.1713 38.5812C71.3797 38.0785 71.4839 37.5206 71.4839 36.9076C71.4839 36.2945 71.3797 35.7366 71.1713 35.2339C70.9751 34.7312 70.6931 34.2959 70.3252 33.9281C69.9697 33.5603 69.5467 33.2783 69.0562 33.0821C68.5658 32.8859 68.0324 32.7878 67.4561 32.7878C66.8799 32.7878 66.3465 32.8859 65.8561 33.0821C65.3779 33.2783 64.9549 33.5603 64.587 33.9281C64.2192 34.2959 63.9311 34.7312 63.7226 35.2339C63.5264 35.7366 63.4284 36.2945 63.4284 36.9076C63.4284 37.5084 63.5264 38.0662 63.7226 38.5812C63.9311 39.0839 64.2131 39.5192 64.5686 39.887C64.9365 40.2549 65.3656 40.5369 65.8561 40.733C66.3465 40.9292 66.8799 41.0273 67.4561 41.0273Z" fill="#6B7280"/>
<path d="M49.0857 40.402L48.9202 36.9627L55.0815 30.4705H58.392L52.8377 36.4478L51.1824 38.2134L49.0857 40.402ZM46.4189 43.3447V30.4705H49.38V43.3447H46.4189ZM55.2286 43.3447L50.649 37.7352L52.5986 35.6201L58.7046 43.3447H55.2286Z" fill="#6B7280"/>
<path d="M37.4368 43.5654C36.4436 43.5654 35.5179 43.406 34.6596 43.0872C33.8136 42.7561 33.0779 42.2902 32.4526 41.6894C31.8273 41.0886 31.3368 40.3836 30.9813 39.5744C30.638 38.7651 30.4663 37.8762 30.4663 36.9076C30.4663 35.9389 30.638 35.05 30.9813 34.2408C31.3368 33.4315 31.8273 32.7265 32.4526 32.1257C33.0902 31.5249 33.832 31.0651 34.678 30.7463C35.524 30.4153 36.4498 30.2498 37.4552 30.2498C38.5709 30.2498 39.5763 30.4459 40.4714 30.8383C41.3787 31.2184 42.1389 31.7824 42.752 32.5303L40.8392 34.2959C40.3978 33.7932 39.9074 33.4193 39.3679 33.174C38.8284 32.9166 38.2399 32.7878 37.6023 32.7878C37.0015 32.7878 36.4498 32.8859 35.947 33.0821C35.4443 33.2783 35.0091 33.5603 34.6412 33.9281C34.2734 34.2959 33.9853 34.7312 33.7768 35.2339C33.5806 35.7366 33.4825 36.2945 33.4825 36.9076C33.4825 37.5206 33.5806 38.0785 33.7768 38.5812C33.9853 39.0839 34.2734 39.5192 34.6412 39.887C35.0091 40.2549 35.4443 40.5369 35.947 40.733C36.4498 40.9292 37.0015 41.0273 37.6023 41.0273C38.2399 41.0273 38.8284 40.9047 39.3679 40.6595C39.9074 40.402 40.3978 40.0158 40.8392 39.5008L42.752 41.2664C42.1389 42.0143 41.3787 42.5845 40.4714 42.9768C39.5763 43.3692 38.5648 43.5654 37.4368 43.5654Z" fill="#6B7280"/>
<path d="M14.0264 43.3447L19.7646 30.4705H22.7073L28.4639 43.3447H25.3373L20.629 31.9786H21.8061L17.0794 43.3447H14.0264ZM16.8955 40.5859L17.6863 38.3237H24.3073L25.1166 40.5859H16.8955Z" fill="#6B7280"/>
<path d="M0 43.3447V30.4705H6.28997C7.90844 30.4705 9.1223 30.777 9.93153 31.39C10.753 32.0031 11.1638 32.8123 11.1638 33.8178C11.1638 34.4921 10.9983 35.0807 10.6672 35.5834C10.3362 36.0738 9.88249 36.4539 9.30621 36.7236C8.72994 36.9934 8.06784 37.1283 7.31991 37.1283L7.66935 36.3742C8.47859 36.3742 9.19586 36.5091 9.82118 36.7788C10.4465 37.0363 10.9308 37.4225 11.2741 37.9375C11.6297 38.4525 11.8075 39.0839 11.8075 39.8318C11.8075 40.9354 11.3722 41.7998 10.5017 42.4251C9.63113 43.0381 8.34984 43.3447 6.6578 43.3447H0ZM2.96107 41.1009H6.4371C7.20956 41.1009 7.79196 40.9783 8.18432 40.733C8.58894 40.4756 8.79125 40.0709 8.79125 39.5192C8.79125 38.9797 8.58894 38.5812 8.18432 38.3237C7.79196 38.054 7.20956 37.9191 6.4371 37.9191H2.74037V35.7489H5.92214C6.64554 35.7489 7.1973 35.6263 7.57739 35.381C7.96975 35.1236 8.16593 34.7373 8.16593 34.2224C8.16593 33.7197 7.96975 33.3457 7.57739 33.1005C7.1973 32.843 6.64554 32.7143 5.92214 32.7143H2.96107V41.1009Z" fill="#6B7280"/>
</svg>
