<svg width="47" height="14" viewBox="0 0 47 14" fill="none" xmlns="http://www.w3.org/2000/svg">
<path d="M45.645 8.07698C45.6545 8.0581 45.6651 8.03923 45.6736 8.02035C45.6852 7.99309 45.6926 7.96372 45.7001 7.93541C45.7043 7.91863 45.7106 7.90185 45.7149 7.88507C45.7244 7.83788 45.7297 7.78859 45.7297 7.7393V1.60657C45.7297 1.27204 45.4555 1.00148 45.1179 1.00148C44.7802 1.00148 44.506 1.27309 44.506 1.60657V6.41796L39.7647 1.3035H39.7626C39.6229 1.12103 39.4038 1.00043 39.1529 1.00043C39.1306 1.00043 39.1095 1.00462 39.0883 1.00672C39.0724 1.00148 39.0555 0.999379 39.0375 1.00148C38.667 1.05286 38.3801 1.36957 38.3801 1.75129V7.88297C38.3801 8.21751 38.6543 8.48807 38.992 8.48807C39.3297 8.48807 39.6038 8.21646 39.6038 7.88297V6.62664C39.6038 6.62664 39.6102 6.62979 39.6123 6.63189V3.07788L44.3536 8.19234H44.3567C44.4965 8.37481 44.7156 8.49541 44.9654 8.49541C44.9951 8.49541 45.0226 8.49017 45.0501 8.48702C45.0575 8.48702 45.0649 8.48912 45.0723 8.48702C45.0808 8.48597 45.0882 8.48282 45.0967 8.48178C45.1178 8.47758 45.139 8.47234 45.1602 8.46709C45.1856 8.4608 45.211 8.45346 45.2353 8.44402C45.2565 8.43563 45.2766 8.42724 45.2978 8.41676C45.32 8.40627 45.3412 8.39473 45.3613 8.38215C45.3814 8.37062 45.4005 8.35803 45.4195 8.34335C45.4386 8.32972 45.4566 8.31503 45.4735 8.2993C45.4915 8.28357 45.5085 8.26784 45.5243 8.25106C45.5402 8.23429 45.555 8.21541 45.5699 8.19653C45.5836 8.17871 45.5984 8.16088 45.6101 8.142C45.6238 8.12103 45.6344 8.09796 45.6461 8.07593L45.645 8.07698Z" fill="#016FFF"/>
<path d="M7.30186 2.75696C6.80645 2.75696 6.35233 2.93523 6.00195 3.22992C5.56794 3.59486 5.29271 4.13913 5.29271 4.74737C5.29271 5.59891 4.75179 6.3267 3.9928 6.60984C3.77262 6.69269 3.53339 6.73778 3.28357 6.73778H4.70204C5.19744 6.73778 5.65157 6.5595 6.00195 6.26482C6.43596 5.89988 6.71118 5.35561 6.71118 4.74737C6.71118 3.89583 7.25211 3.16804 8.01109 2.8849C8.23127 2.80205 8.47051 2.75696 8.72033 2.75696H7.30186Z" fill="#016FFF"/>
<path d="M6.78959 0.845215H5.21339C3.03805 0.845215 1.27344 2.59233 1.27344 4.74844C1.27344 6.90454 3.037 8.65166 5.21339 8.65166H6.78959C8.96492 8.65166 10.7295 6.90454 10.7295 4.74844C10.7295 2.59233 8.96492 0.845215 6.78959 0.845215ZM6.82875 7.36282H5.17423C3.71659 7.36282 2.53418 6.19248 2.53418 4.74739C2.53418 3.30229 3.71553 2.13196 5.17423 2.13196H6.82875C8.28639 2.13196 9.4688 3.30229 9.4688 4.74739C9.4688 6.19248 8.28745 7.36282 6.82875 7.36282Z" fill="#729CFF"/>
<path d="M9.54697 3.57703C9.43053 3.57703 9.31833 3.59381 9.21247 3.62527C9.37655 3.96504 9.46758 4.34676 9.46758 4.74841C9.46758 6.19246 8.28623 7.36384 6.82754 7.36384H5.17301C4.51564 7.36384 3.91438 7.12579 3.45285 6.73253L2.31384 7.39216C3.03366 8.16714 4.06576 8.65163 5.21218 8.65163H6.78837C8.96371 8.65163 10.7283 6.90452 10.7283 4.74841C10.7283 4.10137 10.199 3.57703 9.54592 3.57703H9.54697Z" fill="#016FFF"/>
<path d="M3.28246 6.7388C2.17309 6.7388 1.27437 5.84847 1.27332 4.75049C1.27332 5.76981 1.66816 6.69686 2.31494 7.39109L3.45395 6.73146C3.39784 6.73566 3.34068 6.7388 3.28352 6.7388H3.28246Z" fill="#016FFF"/>
<path d="M8.71926 2.75696C8.66209 2.75696 8.60493 2.75906 8.54883 2.7643C8.82617 3.00025 9.05376 3.29389 9.21254 3.62422C9.3184 3.59381 9.43061 3.57598 9.54705 3.57598C10.2002 3.57598 10.7295 4.10033 10.7295 4.74737C10.7295 3.64834 9.82968 2.75696 8.72031 2.75696H8.71926Z" fill="#1441D3"/>
<path d="M3.28254 6.73883C3.3397 6.73883 3.39687 6.73673 3.45297 6.73148C3.17563 6.49553 2.94804 6.2019 2.78925 5.87156C2.6834 5.90197 2.57119 5.9198 2.45475 5.9198C1.80162 5.9198 1.27234 5.39545 1.27234 4.74841C1.27234 5.84744 2.17211 6.73883 3.28148 6.73883H3.28254Z" fill="#1441D3"/>
<path d="M20.1592 7.49812C20.1592 7.49812 20.1306 7.46456 20.1211 7.45617L19.1514 6.44628L18.4951 5.76358C19.3568 5.36613 19.9549 4.50096 19.9549 3.49737C19.9549 2.11729 18.8264 0.99939 17.4334 0.99939H13.3844C12.962 0.99939 12.6201 1.33812 12.6201 1.75654V7.89347C12.6233 8.22486 12.8953 8.49332 13.2309 8.49332C13.5665 8.49332 13.8385 8.22591 13.8417 7.89347V5.99534H16.9644L19.18 8.26576C19.4065 8.49018 19.6871 8.48703 19.704 8.48703C20.0385 8.48703 20.3095 8.21857 20.3095 7.88718C20.3095 7.73722 20.2513 7.60089 20.1592 7.49602V7.49812ZM17.4334 4.78516H13.8428V2.21272H17.4334C18.1511 2.21272 18.7322 2.78845 18.7322 3.49946C18.7322 4.21048 18.1511 4.78621 17.4334 4.78621V4.78516Z" fill="#016FFF"/>
<path d="M32.4353 5.34723C32.4321 5.01585 32.1601 4.74738 31.8245 4.74738C31.4889 4.74738 31.2169 5.0148 31.2137 5.34723V7.28311H29.0363C28.9939 7.28311 28.9526 7.27892 28.9113 7.27682C27.5564 7.2118 26.4767 6.10648 26.4767 4.74738C26.4767 3.38828 27.6231 2.21165 29.0363 2.21165H31.2201C31.5546 2.20746 31.8256 1.93794 31.8256 1.60656C31.8256 1.27517 31.5556 1.00461 31.2201 1.00146H30.6188H29.0363C26.9477 1.00146 25.254 2.67937 25.254 4.74843C25.254 6.81749 26.845 8.39158 28.8447 8.49015C28.8447 8.49225 28.8447 8.4933 28.8457 8.4954H31.6721C32.0944 8.4954 32.4363 8.15667 32.4363 7.73824V5.34723H32.4353Z" fill="#016FFF"/>
<path d="M23.3856 1.60028C23.3825 1.26889 23.1136 1.00043 22.7812 1.00043C22.4488 1.00043 22.1799 1.26784 22.1768 1.60028V7.89556C22.1799 8.22694 22.4488 8.49541 22.7812 8.49541C23.1136 8.49541 23.3825 8.22799 23.3856 7.89556V1.60028Z" fill="#016FFF"/>
<path d="M30.3626 4.74842C30.0281 4.75157 29.7571 5.01794 29.7571 5.34723C29.7571 5.67651 30.027 5.94288 30.3626 5.94603H31.8319C32.1664 5.94183 32.4374 5.67547 32.4374 5.34618C32.4374 5.01689 32.1674 4.75052 31.8319 4.74738H30.3626V4.74842Z" fill="#016FFF"/>
<path d="M36.0121 1.60028C36.0089 1.26889 35.74 1.00043 35.4077 1.00043C35.0753 1.00043 34.8064 1.26784 34.8032 1.60028V7.89556C34.8064 8.22694 35.0753 8.49541 35.4077 8.49541C35.74 8.49541 36.0089 8.22799 36.0121 7.89556V1.60028Z" fill="#016FFF"/>
<path d="M4.61319 12.1941C4.61319 12.7604 4.07015 13.1547 3.04335 13.1547C2.30977 13.1547 1.7138 12.9492 1.27026 12.5759L1.65134 12.1281C2.00808 12.4521 2.46749 12.6042 3.06029 12.6042C3.65308 12.6042 3.9463 12.493 3.9463 12.255C3.9463 12.0169 3.64779 11.9508 2.98089 11.8942C2.15204 11.8239 1.38141 11.6436 1.38141 11.028C1.38141 10.4124 2.02819 10.101 2.92267 10.101C3.55675 10.101 4.10297 10.2572 4.4724 10.5404L4.10826 10.9955C3.78963 10.7532 3.39585 10.6547 2.92373 10.6505C2.52995 10.6463 2.04936 10.7165 2.04936 10.9787C2.04936 11.2251 2.46326 11.2493 3.03911 11.2944C3.96324 11.3678 4.61319 11.5607 4.61319 12.1931V12.1941Z" fill="#016FFF"/>
<path d="M6.65088 11.6278C6.65088 10.6672 7.36329 10.101 8.49489 10.101C9.62649 10.101 10.3389 10.6672 10.3389 11.6278C10.3389 12.5884 9.62649 13.1547 8.49489 13.1547C7.36329 13.1547 6.65088 12.5884 6.65088 11.6278ZM9.66248 11.6278C9.66248 11.0123 9.21047 10.6672 8.49383 10.6672C7.77718 10.6672 7.32518 11.0123 7.32518 11.6278C7.32518 12.2434 7.77295 12.5884 8.49383 12.5884C9.21471 12.5884 9.66248 12.2434 9.66248 11.6278Z" fill="#016FFF"/>
<path d="M15.3332 12.4983V13.0646H12.6201V10.1912H13.2828V12.4972H15.3332V12.4983Z" fill="#016FFF"/>
<path d="M20.553 10.1922V11.7107C20.553 12.5727 19.9771 13.1558 18.9249 13.1558C17.8727 13.1558 17.2969 12.5727 17.2969 11.7107V10.1922H17.9595V11.6614C17.9595 12.2361 18.2993 12.5811 18.9249 12.5811C19.5505 12.5811 19.8903 12.2361 19.8903 11.6614V10.1922H20.553Z" fill="#016FFF"/>
<path d="M25.8342 10.7585H24.566V13.0646H23.9034V10.7585H22.6437V10.1922H25.8342V10.7585Z" fill="#016FFF"/>
<path d="M27.9756 13.0646V10.1912H28.6382V13.0646H27.9756Z" fill="#016FFF"/>
<path d="M30.9163 11.6278C30.9163 10.6672 31.6287 10.101 32.7603 10.101C33.8919 10.101 34.6043 10.6672 34.6043 11.6278C34.6043 12.5884 33.8919 13.1547 32.7603 13.1547C31.6287 13.1547 30.9163 12.5884 30.9163 11.6278ZM33.9279 11.6278C33.9279 11.0123 33.4759 10.6672 32.7592 10.6672C32.0426 10.6672 31.5906 11.0123 31.5906 11.6278C31.5906 12.2434 32.0383 12.5884 32.7592 12.5884C33.4801 12.5884 33.9279 12.2434 33.9279 11.6278Z" fill="#016FFF"/>
<path d="M40.1871 10.1922V13.0656H39.607L37.5269 10.9892V13.0656H36.8844V10.1922H37.5883L39.5435 12.1627V10.1922H40.186H40.1871Z" fill="#016FFF"/>
<path d="M45.7298 12.1941C45.7298 12.7604 45.1867 13.1547 44.1599 13.1547C43.4263 13.1547 42.8304 12.9492 42.3868 12.5759L42.7679 12.1281C43.1247 12.4521 43.5841 12.6042 44.1769 12.6042C44.7697 12.6042 45.0629 12.493 45.0629 12.255C45.0629 12.0169 44.7644 11.9508 44.0975 11.8942C43.2686 11.8239 42.498 11.6436 42.498 11.028C42.498 10.4124 43.1448 10.101 44.0392 10.101C44.6733 10.101 45.2195 10.2572 45.589 10.5404L45.2248 10.9955C44.9062 10.7532 44.5124 10.6547 44.0403 10.6505C43.6465 10.6463 43.1659 10.7165 43.1659 10.9787C43.1659 11.2251 43.5798 11.2493 44.1557 11.2944C45.0798 11.3678 45.7298 11.5607 45.7298 12.1931V12.1941Z" fill="#016FFF"/>
</svg>
