<?xml version="1.0" encoding="UTF-8"?>
<svg id="Layer_1" xmlns="http://www.w3.org/2000/svg" viewBox="0 0 44.46 12.31">
  <defs>
    <style>
      .cls-1 {
        fill: #fff;
      }
    </style>
  </defs>
  <path class="cls-1" d="M44.37,7.23s.02-.04.03-.06c.01-.03.02-.06.03-.08,0-.02.01-.03.01-.05,0-.05.01-.1.01-.15V.76c0-.33-.27-.61-.61-.61s-.61.27-.61.61v4.81L38.49.46h0c-.14-.18-.36-.3-.61-.3-.02,0-.04,0-.06,0-.02,0-.03,0-.05,0-.37.05-.66.37-.66.75v6.13c0,.33.27.61.61.61s.61-.27.61-.61v-1.26s0,0,0,0v-3.55l4.74,5.11h0c.14.18.36.3.61.3.03,0,.06,0,.08,0,0,0,.01,0,.02,0,0,0,.02,0,.02,0,.02,0,.04,0,.06-.01.03,0,.05-.01.08-.02.02,0,.04-.02.06-.03.02-.01.04-.02.06-.03.02-.01.04-.02.06-.04.02-.01.04-.03.05-.04.02-.02.03-.03.05-.05.02-.02.03-.04.05-.05.01-.02.03-.04.04-.05.01-.02.02-.04.04-.07h0Z"/>
  <path class="cls-1" d="M6.03,1.91c-.5,0-.95.18-1.3.47-.43.36-.71.91-.71,1.52,0,.85-.54,1.58-1.3,1.86-.22.08-.46.13-.71.13h1.42c.5,0,.95-.18,1.3-.47.43-.36.71-.91.71-1.52,0-.85.54-1.58,1.3-1.86.22-.08.46-.13.71-.13h-1.42Z"/>
  <path class="cls-1" d="M5.52,0h-1.58C1.77,0,0,1.75,0,3.9s1.76,3.9,3.94,3.9h1.58c2.18,0,3.94-1.75,3.94-3.9S7.69,0,5.52,0ZM5.56,6.52h-1.65c-1.46,0-2.64-1.17-2.64-2.62S2.45,1.29,3.9,1.29h1.65c1.46,0,2.64,1.17,2.64,2.62s-1.18,2.62-2.64,2.62Z"/>
  <path class="cls-1" d="M8.28,2.73c-.12,0-.23.02-.33.05.16.34.26.72.26,1.12,0,1.44-1.18,2.62-2.64,2.62h-1.65c-.66,0-1.26-.24-1.72-.63l-1.14.66c.72.77,1.75,1.26,2.9,1.26h1.58c2.18,0,3.94-1.75,3.94-3.9,0-.65-.53-1.17-1.18-1.17h0Z"/>
  <path class="cls-1" d="M2.01,5.89C.9,5.89,0,5,0,3.91,0,4.92.4,5.85,1.04,6.55l1.14-.66c-.06,0-.11,0-.17,0h0Z"/>
  <path class="cls-1" d="M7.45,1.91c-.06,0-.11,0-.17,0,.28.24.5.53.66.86.11-.03.22-.05.33-.05.65,0,1.18.52,1.18,1.17,0-1.1-.9-1.99-2.01-1.99h0Z"/>
  <path class="cls-1" d="M2.01,5.89c.06,0,.11,0,.17,0-.28-.24-.5-.53-.66-.86-.11.03-.22.05-.33.05C.53,5.07,0,4.55,0,3.9,0,5,.9,5.89,2.01,5.89h0Z"/>
  <path class="cls-1" d="M18.89,6.65s-.03-.03-.04-.04l-.97-1.01-.66-.68c.86-.4,1.46-1.26,1.46-2.27,0-1.38-1.13-2.5-2.52-2.5h-4.05c-.42,0-.76.34-.76.76v6.14c0,.33.28.6.61.6s.61-.27.61-.6v-1.9h3.12l2.22,2.27c.23.22.51.22.52.22.33,0,.61-.27.61-.6,0-.15-.06-.29-.15-.39h0ZM16.16,3.94h-3.59V1.37h3.59c.72,0,1.3.58,1.3,1.29s-.58,1.29-1.3,1.29h0Z"/>
  <path class="cls-1" d="M31.17,4.5c0-.33-.28-.6-.61-.6s-.61.27-.61.6v1.94h-2.18s-.08,0-.12,0c-1.35-.07-2.43-1.17-2.43-2.53s1.15-2.54,2.56-2.54h2.18c.33,0,.61-.27.61-.61s-.27-.6-.61-.61h-2.18c-2.09,0-3.78,1.68-3.78,3.75s1.59,3.64,3.59,3.74c0,0,0,0,0,0h2.83c.42,0,.76-.34.76-.76v-2.39h0Z"/>
  <path class="cls-1" d="M22.12.76c0-.33-.27-.6-.6-.6s-.6.27-.6.6v6.3c0,.33.27.6.6.6s.6-.27.6-.6V.76Z"/>
  <path class="cls-1" d="M29.09,3.9c-.33,0-.61.27-.61.6s.27.6.61.6h1.47c.33,0,.61-.27.61-.6s-.27-.6-.61-.6h-1.47Z"/>
  <path class="cls-1" d="M34.74.76c0-.33-.27-.6-.6-.6s-.6.27-.6.6v6.3c0,.33.27.6.6.6s.6-.27.6-.6V.76Z"/>
  <path class="cls-1" d="M3.34,11.35c0,.57-.54.96-1.57.96-.73,0-1.33-.21-1.77-.58l.38-.45c.36.32.82.48,1.41.48s.89-.11.89-.35-.3-.3-.97-.36c-.83-.07-1.6-.25-1.6-.87s.65-.93,1.54-.93c.63,0,1.18.16,1.55.44l-.36.46c-.32-.24-.71-.34-1.18-.34-.39,0-.87.07-.87.33,0,.25.41.27.99.32.92.07,1.57.27,1.57.9h0Z"/>
  <path class="cls-1" d="M5.38,10.78c0-.96.71-1.53,1.84-1.53s1.84.57,1.84,1.53-.71,1.53-1.84,1.53-1.84-.57-1.84-1.53ZM8.39,10.78c0-.62-.45-.96-1.17-.96s-1.17.35-1.17.96.45.96,1.17.96,1.17-.35,1.17-.96Z"/>
  <path class="cls-1" d="M14.06,11.65v.57h-2.71v-2.87h.66v2.31h2.05Z"/>
  <path class="cls-1" d="M19.28,9.35v1.52c0,.86-.58,1.45-1.63,1.45s-1.63-.58-1.63-1.45v-1.52h.66v1.47c0,.57.34.92.97.92s.97-.35.97-.92v-1.47h.66Z"/>
  <path class="cls-1" d="M24.56,9.91h-1.27v2.31h-.66v-2.31h-1.26v-.57h3.19v.57Z"/>
  <path class="cls-1" d="M26.71,12.22v-2.87h.66v2.87h-.66Z"/>
  <path class="cls-1" d="M29.65,10.78c0-.96.71-1.53,1.84-1.53s1.84.57,1.84,1.53-.71,1.53-1.84,1.53-1.84-.57-1.84-1.53ZM32.66,10.78c0-.62-.45-.96-1.17-.96s-1.17.35-1.17.96.45.96,1.17.96,1.17-.35,1.17-.96Z"/>
  <path class="cls-1" d="M38.92,9.35v2.87h-.58l-2.08-2.08v2.08h-.64v-2.87h.7l1.96,1.97v-1.97h.64Z"/>
  <path class="cls-1" d="M44.46,11.35c0,.57-.54.96-1.57.96-.73,0-1.33-.21-1.77-.58l.38-.45c.36.32.82.48,1.41.48s.89-.11.89-.35-.3-.3-.97-.36c-.83-.07-1.6-.25-1.6-.87s.65-.93,1.54-.93c.63,0,1.18.16,1.55.44l-.36.46c-.32-.24-.71-.34-1.18-.34-.39,0-.87.07-.87.33,0,.25.41.27.99.32.92.07,1.57.27,1.57.9h0Z"/>
</svg>