<?xml version="1.0" encoding="utf-8"?>
<!-- Generator: Adobe Illustrator 24.0.1, SVG Export Plug-In . SVG Version: 6.00 Build 0)  -->
<svg version="1.1" id="OutLine" xmlns="http://www.w3.org/2000/svg" xmlns:xlink="http://www.w3.org/1999/xlink" x="0px" y="0px"
	 viewBox="0 0 512 512" style="enable-background:new 0 0 512 512;" xml:space="preserve">
<style type="text/css">
	.st0{fill:#E62E3D;}
</style>
<path id="container" class="st0" d="M349.7,18.3c-1.5-1.5-3.5-2.3-5.7-2.3H120c-30.9,0-56,25.1-56,56v368c0,30.9,25.1,56,56,56h272
	c30.9,0,56-25.1,56-56V120c0-2.1-0.8-4.2-2.3-5.7L349.7,18.3z M352,43.3l68.7,68.7H392c-22.1,0-40-17.9-40-40V43.3z M120,32h216v40
	c0,30.9,25.1,56,56,56h40v224H80V72C80,49.9,97.9,32,120,32z M392,480H120c-22.1,0-40-17.9-40-40v-72h352v72
	C432,462.1,414.1,480,392,480z"/>
<g id="grid">
	<path class="st0" d="M248,176h128c4.4,0,8-3.6,8-8s-3.6-8-8-8H248c-4.4,0-8,3.6-8,8S243.6,176,248,176z"/>
	<path class="st0" d="M248,208h32c4.4,0,8-3.6,8-8s-3.6-8-8-8h-32c-4.4,0-8,3.6-8,8S243.6,208,248,208z"/>
	<path class="st0" d="M248,240h128c4.4,0,8-3.6,8-8s-3.6-8-8-8H248c-4.4,0-8,3.6-8,8S243.6,240,248,240z"/>
	<path class="st0" d="M136,272h184c4.4,0,8-3.6,8-8s-3.6-8-8-8H136c-4.4,0-8,3.6-8,8S131.6,272,136,272z"/>
	<path class="st0" d="M376,192h-64c-4.4,0-8,3.6-8,8s3.6,8,8,8h64c4.4,0,8-3.6,8-8S380.4,192,376,192z"/>
	<path class="st0" d="M376,256h-24c-4.4,0-8,3.6-8,8s3.6,8,8,8h24c4.4,0,8-3.6,8-8S380.4,256,376,256z"/>
	<path class="st0" d="M136,304h48c4.4,0,8-3.6,8-8s-3.6-8-8-8h-48c-4.4,0-8,3.6-8,8S131.6,304,136,304z"/>
	<path class="st0" d="M296,288h-80c-4.4,0-8,3.6-8,8s3.6,8,8,8h80c4.4,0,8-3.6,8-8S300.4,288,296,288z"/>
	<path class="st0" d="M376,288h-48c-4.4,0-8,3.6-8,8s3.6,8,8,8h48c4.4,0,8-3.6,8-8S380.4,288,376,288z"/>
	<path class="st0" d="M136,240h80c4.4,0,8-3.6,8-8v-96c0-4.4-3.6-8-8-8h-80c-4.4,0-8,3.6-8,8v96C128,236.4,131.6,240,136,240z
		 M144,144h64v80h-64V144z"/>
	<path class="st0" d="M248,144h64c4.4,0,8-3.6,8-8s-3.6-8-8-8h-64c-4.4,0-8,3.6-8,8S243.6,144,248,144z"/>
</g>
<g>
	<path class="st0" d="M248,401.4v45.3c6.8-2.4,12.2-7.8,14.6-14.6C267.1,419.5,260.5,405.8,248,401.4z"/>
	<path class="st0" d="M192,400h-8v16h8c4.4,0,8-3.6,8-8S196.4,400,192,400z"/>
	<path class="st0" d="M64,352v86c0,32,26,58,58,58h268c32,0,58-26,58-58v-86H64z M192,432h-8v24c0,4.4-3.6,8-8,8s-8-3.6-8-8v-64
		c0-4.4,3.6-8,8-8h16c13.3,0,24,10.7,24,24S205.3,432,192,432z M240,464c-4.4,0-8-3.6-8-8v-64c0-4.4,3.6-8,8-8c22.1,0,40,17.9,40,40
		C280,446.1,262.1,464,240,464z M336,400h-24v16h8c4.4,0,8,3.6,8,8s-3.6,8-8,8h-8v24c0,4.4-3.6,8-8,8s-8-3.6-8-8v-64
		c0-4.4,3.6-8,8-8h32c4.4,0,8,3.6,8,8S340.4,400,336,400z"/>
</g>
</svg>
