<?xml version="1.0" encoding="utf-8"?>
<!-- Generator: Adobe Illustrator 24.0.1, SVG Export Plug-In . SVG Version: 6.00 Build 0)  -->
<svg version="1.1" id="OutLine" xmlns="http://www.w3.org/2000/svg" xmlns:xlink="http://www.w3.org/1999/xlink" x="0px" y="0px"
	 viewBox="0 0 512 512" style="enable-background:new 0 0 512 512;" xml:space="preserve">
<style type="text/css">
	.st0{fill:#47CCAB;}
</style>
<path id="container" class="st0" d="M349.7,18.3c-1.5-1.5-3.5-2.3-5.7-2.3H120c-30.9,0-56,25.1-56,56v368c0,30.9,25.1,56,56,56h272
	c30.9,0,56-25.1,56-56V120c0-2.1-0.8-4.2-2.3-5.7L349.7,18.3z M352,43.3l68.7,68.7H392c-22.1,0-40-17.9-40-40V43.3z M120,32h216v40
	c0,30.9,25.1,56,56,56h40v224H80V72C80,49.9,97.9,32,120,32z M392,480H120c-22.1,0-40-17.9-40-40v-72h352v72
	C432,462.1,414.1,480,392,480z"/>
<path class="st0" d="M64,352v86c0,32,26,58,58,58h268c32,0,58-26,58-58v-86H64z M211.5,463.4c-4,1.9-8.8,0.1-10.6-3.9l-8.9-17.7
	l-8.8,17.7c0,0,0,0.1-0.1,0.1c-2,3.8-6.7,5.3-10.6,3.4c-4-1.9-5.6-6.7-3.7-10.7l14.2-28.4l-14.2-28.4c-1.8-3.8-0.3-8.4,3.5-10.4
	c3.9-2.1,8.7-0.6,10.8,3.2l8.8,17.7l8.9-17.7c2-3.9,6.8-5.5,10.7-3.6c3.9,2,5.5,6.8,3.6,10.7L200.9,424l14.2,28.4l0.1,0.1
	c0,0.1,0.1,0.2,0.1,0.3C217.2,456.8,215.5,461.6,211.5,463.4z M272,464h-32c-4.4,0-8-3.6-8-8v-64c0-4.4,3.6-8,8-8s8,3.6,8,8v56h24
	c4.4,0,8,3.6,8,8S276.4,464,272,464z M320,416c13.3,0,24,10.7,24,24s-10.7,24-24,24h-16c-4.4,0-8-3.6-8-8s3.6-8,8-8h16
	c4.4,0,8-3.6,8-8s-3.6-8-8-8c-13.3,0-24-10.7-24-24s10.7-24,24-24h16c4.4,0,8,3.6,8,8s-3.6,8-8,8h-16c-4.4,0-8,3.6-8,8
	S315.6,416,320,416z"/>
<path id="grid" class="st0" d="M136,304h240c4.4,0,8-3.6,8-8V152c0-4.4-3.6-8-8-8H136c-4.4,0-8,3.6-8,8v144
	C128,300.4,131.6,304,136,304z M144,256h64v32h-64V256z M288,208v32h-64v-32H288z M224,192v-32h64v32H224z M304,208h64v32h-64V208z
	 M288,256v32h-64v-32H288z M208,240h-64v-32h64V240z M304,288v-32h64v32H304z M368,192h-64v-32h64V192z M208,160v32h-64v-32H208z"/>
</svg>
