<svg width="827" height="640" viewBox="0 0 827 640" fill="none" xmlns="http://www.w3.org/2000/svg">
<rect width="827" height="640" fill="#E1EFFE"/>
<path d="M470.569 232.753C448.827 232.753 428.897 240.563 413.52 253.474C394.472 269.462 382.393 293.306 382.393 319.953C382.393 357.259 358.654 389.143 325.344 401.548C315.681 405.177 305.181 407.153 294.218 407.153H356.47C378.212 407.153 398.142 399.342 413.52 386.432C432.567 370.444 444.646 346.6 444.646 319.953C444.646 282.647 468.386 250.763 501.695 238.358C511.358 234.729 521.858 232.753 532.822 232.753H470.569Z" fill="#016FFF"/>
<path d="M448.088 149H378.913C283.444 149 206 225.541 206 320C206 414.459 283.398 491 378.913 491H448.088C543.558 491 621 414.459 621 320C621 225.541 543.558 149 448.088 149ZM449.807 434.536H377.195C313.223 434.536 261.33 383.263 261.33 319.954C261.33 256.644 313.177 205.372 377.195 205.372H449.807C513.779 205.372 565.671 256.644 565.671 319.954C565.671 383.263 513.825 434.536 449.807 434.536Z" fill="#016FFF"/>
</svg>
