<svg width="24" height="24" viewBox="0 0 24 24" fill="none" xmlns="http://www.w3.org/2000/svg">
<g id="image-outline">
<g id="Vector">
<path d="M20 3H4C3.46957 3 2.96086 3.21071 2.58579 3.58579C2.21071 3.96086 2 4.46957 2 5V19C2 19.5304 2.21071 20.0391 2.58579 20.4142C2.96086 20.7893 3.46957 21 4 21H20C20.5304 21 21.0391 20.7893 21.4142 20.4142C21.7893 20.0391 22 19.5304 22 19V5C22 4.46957 21.7893 3.96086 21.4142 3.58579C21.0391 3.21071 20.5304 3 20 3ZM4 19V5H20V19H4Z" fill="#9CA3AF"/>
<path d="M16.3 12.464C16.2154 12.3303 16.1003 12.2185 15.9641 12.1379C15.8279 12.0573 15.6745 12.0102 15.5166 12.0005C15.3586 11.9907 15.2006 12.0186 15.0555 12.0818C14.9104 12.145 14.7824 12.2417 14.682 12.364L13.136 14.251L10.364 9.5C10.2765 9.3402 10.1455 9.20843 9.98625 9.11995C9.82698 9.03146 9.64592 8.98988 9.464 9C9.28374 9.00564 9.10837 9.05992 8.95645 9.1571C8.80452 9.25427 8.68171 9.39072 8.601 9.552L5.101 16.552C5.02441 16.7048 4.98828 16.8748 4.99606 17.0455C5.00385 17.2163 5.05528 17.3822 5.14545 17.5275C5.23562 17.6727 5.36152 17.7924 5.51113 17.8751C5.66073 17.9579 5.82905 18.0008 6 18H18C18.1791 18 18.3549 17.9518 18.509 17.8606C18.6631 17.7694 18.7899 17.6385 18.8762 17.4816C18.9624 17.3246 19.0049 17.1474 18.9993 16.9684C18.9936 16.7894 18.94 16.6152 18.844 16.464L16.3 12.464Z" fill="#9CA3AF"/>
<path d="M14.5 10C15.3284 10 16 9.32843 16 8.5C16 7.67157 15.3284 7 14.5 7C13.6716 7 13 7.67157 13 8.5C13 9.32843 13.6716 10 14.5 10Z" fill="#9CA3AF"/>
</g>
</g>
</svg>
